<svg xmlns="http://www.w3.org/2000/svg" viewBox="0 0 540.6 51.85"><defs><style>.cls-1{isolation:isolate;}.cls-2{fill:#666766;}.cls-3{fill:#69adcc;}.cls-4{fill:#f3ed6c;}.cls-4,.cls-7,.cls-8{opacity:0.8;mix-blend-mode:darken;}.cls-5{fill:none;}.cls-6{fill:#4e4d26;}.cls-7{fill:#fecc66;}.cls-8{fill:#f6ef70;}</style></defs><title>christopher-logo</title><g id="Layer_1" class="cls-1"><path class="cls-2" d="M16.09 11.78c4 0 6.64 2 7.72 2 .91 0 1.16-.29 1.86-.29 1.73 0 4 2.6 4 7.18 0 2.35-1.4 4.33-3.84 4.33-4.25 0-3.18-7.3-10.52-7.3-3.18 0-4.5 3-4.5 5.24 0 6.11 3.26 11.31 9 11.31 5.24 0 6-2.85 7.3-2.85s1.77 1.4 1.77 2.43c0 1.82-1.9 5.61-4 5.61-1.4 0-4.29 2.39-9.16 2.39-8.62.03-15.72-6.83-15.72-15.11 0-8.46 8-14.94 16.09-14.94z"/><path class="cls-2" d="M61.39 34.47a2.27 2.27 0 0 0 1.28 2.48c.83.45 1.4.7 1.4 1.73s-.07 3.05-8.21 3.05c-1.82 0-7.1 0-7.1-2.81-.17-3.18 2.89.33 2.89-8 0-2.23-.5-2.15-2.56-2.15-5.78 0-5.24.17-5.24 3.88 0 5.65 2.56 3.38 2.56 6.07 0 2.89-6 3.05-8 3.05s-7.63-.17-7.63-3a2 2 0 0 1 1.32-1.77c1.49-.7 2-.58 2-9.2 0-11-.17-10.07-1.69-10.89a1.91 1.91 0 0 1-1.36-1.53c0-3.18 6.89-3.51 9.2-3.51 1.73 0 6.52.21 6.52 2.68 0 1.28-.7 1.73-1.65 2.31s-1.26 1.14-1.26 4.78c0 2.31 1.07 2 3.05 2h2.09c2.72 0 2.64-.41 2.64-1.69 0-4.5-.7-4.79-1.24-5.08-.78-.45-1.53-.83-1.53-1.9 0-.78-.17-3.09 8-3.09 1.94 0 7.43 0 7.43 2.93a2.05 2.05 0 0 1-1.28 1.94c-1.24.54-1.69.41-1.69 7v10.72z"/><path class="cls-2" d="M68.65 20.94c0-6.4-3.14-3.75-3.14-6.31 0-2.27 3.22-2.56 4.87-2.56.87 0 1.69.08 2.56.12s1.69.16 2.52.16c1.32 0 2.64-.08 4-.16s2.68-.12 4-.12c4.66 0 10.07 2.06 10.07 7.55a6.48 6.48 0 0 1-3.51 6 .88.88 0 0 0-.66.83 1.18 1.18 0 0 0 1 1c2.89 1.07 4.17 3 4.75 7.43.5 3.84 3.18 1.53 3.18 4 0 1.57-1.9 3.22-6.56 3.22-6.6 0-7.43-3.8-8.71-9.24-.45-1.9-1.16-3.75-3.42-3.75-.91 0-1.24.12-1.24 2.72a25.76 25.76 0 0 0 .29 4c.33 1.9 2.43 1.32 2.43 3.3 0 1.49-1 2.6-7.72 2.6-2 0-7.84 0-7.84-3 0-2.15 3.09-.66 3.09-6v-11.79zm9.57 1.82c-.08 1.07-.29 2 1.07 2 2.68 0 3.55-1.49 3.55-4 0-2-.49-4.08-2.89-4.08-1.53 0-1.49.95-1.57 2.23z"/><path class="cls-2" d="M102.61 24.78c0-5.24-.41-6.44-.87-7-.95-1.2-2.56-1.32-2.56-2.89 0-3 8.42-3 9.24-3 2.48 0 7.55.08 7.55 2.89 0 1.49-1.57 1.4-2.52 2.48-.78.91-.83 4.62-.83 7.51v4.08c0 7.34.5 7.18 1.32 7.67 1 .62 2 .83 2 2.1s-.37 3.09-9.41 3.09c-1.73 0-6.93 0-6.93-2.68 0-1.32 1.4-1.53 2.06-2.31.5-.58.91-2.1.91-7.88v-4.06z"/><path class="cls-2" d="M118.2 21.39c0-4.29 4.13-9.61 12.13-9.61 2.64 0 5.61 1.16 6.23 1.16s1.15-.58 2-.58c1.4 0 4.54 3.18 4.54 6.64a2.61 2.61 0 0 1-2.43 2.81c-2.76 0-4.37-4.7-8.66-4.7-1.28 0-2.64.58-2.64 2.06 0 3.26 5.65 2.39 10.44 5.57a7.59 7.59 0 0 1 3.84 6.85c0 4.83-4 10.27-13.58 10.27-2.72 0-7.39-.7-9.74-2-2-1.11-2.93-5.49-2.93-7.59 0-1.11.49-2.23 1.73-2.23 2.93 0 2.43 6.56 10 6.56.91 0 3.18-.45 3.18-2 0-3-5.65-2.23-10.23-5.9a9.47 9.47 0 0 1-3.88-7.31z"/><path class="cls-2" d="M165.07 12.36a14.33 14.33 0 0 0 3.22-.29 5 5 0 0 1 1.69-.29c1.61 0 5 3.18 5 7.63 0 2.06-1.07 3.42-3.18 3.42-3.59 0-3.55-4.87-5.65-4.87-1.61 0-1.44 2.23-1.44 2.56v12.67c0 4.91 3.8 2.56 3.8 5.45 0 1.28-.78 3.09-8.5 3.09-2.1 0-9.82.08-9.82-3.09 0-2.19 2.56-1.32 3.38-2.89a16.72 16.72 0 0 0 .62-4.37l.33-9.12c.17-4.33-.7-4.29-1.28-4.29-1.86 0-2.76 4.87-6.11 4.87a2.75 2.75 0 0 1-2.56-3c0-3.51 3-8.09 5.32-8.09a10.77 10.77 0 0 1 1.53.29 21.13 21.13 0 0 0 3.55.29h10.15z"/><path class="cls-2" d="M175.92 26.72c0-8.75 7-14.94 16-14.94 11.39 0 15.76 10 15.76 15.35 0 8.87-7.84 14.73-16.26 14.73-8.73 0-15.5-6.36-15.5-15.14zm14.08-8.79c-2.31 0-3.47 2.39-3.47 4.41 0 3.51 2.48 13.37 6.93 13.37 2.52 0 3.59-2.19 3.59-4.41-.05-3.76-2.23-13.37-7.05-13.37z"/><path class="cls-2" d="M213.09 18.63c0-3.09-3.84-1.73-3.84-4.33 0-1.65 1.82-2 3.09-2l3.05.08c6 0 9.61-.58 11.35-.58 5.61 0 11 3.26 11 9.45s-5.2 9.45-10.93 9.45c-1.24 0-2.48-.21-3.59-.21a.56.56 0 0 0-.66.66v2.39c.12 5.16 3.14 3 3.14 5.41 0 2.68-5.94 2.81-7.8 2.81s-7.84 0-7.84-2.72c0-2.27 3-.87 3-4.25v-16.16zm11.06-2c-1.61 0-1.57.5-1.57 1.32v6.19c0 .87-.37 1.82 1.86 1.82 2.72 0 3.8-2.06 3.8-4.58s-1.32-4.73-4.09-4.73z"/><path class="cls-2" d="M269.54 34.47a2.27 2.27 0 0 0 1.28 2.48c.83.45 1.4.7 1.4 1.73s-.08 3.05-8.21 3.05c-1.82 0-7.1 0-7.1-2.81-.16-3.18 2.89.33 2.89-8 0-2.23-.5-2.15-2.56-2.15-5.78 0-5.24.17-5.24 3.88 0 5.65 2.56 3.38 2.56 6.07 0 2.89-6 3.05-8 3.05s-7.63-.17-7.63-3a2 2 0 0 1 1.31-1.77c1.49-.7 2-.58 2-9.2 0-11-.17-10.07-1.69-10.89a1.91 1.91 0 0 1-1.36-1.53c0-3.18 6.89-3.51 9.2-3.51 1.73 0 6.52.21 6.52 2.68 0 1.28-.7 1.73-1.65 2.31s-1.26 1.14-1.26 4.78c0 2.31 1.07 2 3.05 2h2.1c2.72 0 2.64-.41 2.64-1.69 0-4.5-.7-4.79-1.24-5.08-.78-.45-1.53-.83-1.53-1.9 0-.78-.17-3.09 8-3.09 1.94 0 7.43 0 7.43 2.93a2.05 2.05 0 0 1-1.28 1.94c-1.24.54-1.69.41-1.69 7v10.72z"/><path class="cls-2" d="M290.7 12.36a21.25 21.25 0 0 0 7-.83c2.35 0 3.34 4 3.34 5.86 0 1.36-.54 3-2.15 3-3.26 0-.62-4-8.46-4-4.58 0-4.13.83-4.13 5.57 0 2.39.12 2.48 2.64 2.48 3.14 0 .78-4.58 3.71-4.58 2.39 0 2.56 4.66 2.56 6.27s-.29 6.64-2.76 6.64 0-4.33-4.17-4.33c-1.73 0-1.69 1.57-1.69 2.89 0 6 .41 5.74 4.75 5.74 8.46 0 6.07-5.82 9.45-5.82 1.32 0 2 1.49 2 2.64 0 2.81-2.23 7.84-3.88 7.84-.29 0-.95-.12-1.82-.25s-2.06-.21-3.47-.21h-17c-2.72 0-2.76-1.24-2.76-1.77 0-2.27 2.81-.45 3.09-4.83a74.58 74.58 0 0 0 .12-14.24c-.29-6.31-3.42-3.05-3.42-6 0-2.52 3.47-2.1 5.16-2.1h11.89z"/><path class="cls-2" d="M306.75 20.94c0-6.4-3.14-3.75-3.14-6.31 0-2.27 3.22-2.56 4.87-2.56.87 0 1.69.08 2.56.12s1.69.16 2.52.16c1.32 0 2.64-.08 4-.16s2.68-.12 4-.12c4.66 0 10.07 2.06 10.07 7.55a6.48 6.48 0 0 1-3.51 6 .88.88 0 0 0-.66.83 1.18 1.18 0 0 0 1 1c2.89 1.07 4.17 3 4.75 7.43.49 3.84 3.18 1.53 3.18 4 0 1.57-1.9 3.22-6.56 3.22-6.6 0-7.43-3.8-8.71-9.24-.45-1.9-1.15-3.75-3.42-3.75-.91 0-1.24.12-1.24 2.72a25.73 25.73 0 0 0 .29 4c.33 1.9 2.43 1.32 2.43 3.3 0 1.49-1 2.6-7.72 2.6-2 0-7.84 0-7.84-3 0-2.15 3.09-.66 3.09-6v-11.79zm9.57 1.82c-.08 1.07-.29 2 1.07 2 2.68 0 3.55-1.49 3.55-4 0-2-.5-4.08-2.89-4.08-1.53 0-1.49.95-1.57 2.23z"/><path class="cls-3" d="M431.57 32.12a.31.31 0 0 1-.13-.08.31.31 0 0 0 .13.08z"/><path class="cls-3" d="M422.23 28.1v-.14z"/><path class="cls-3" d="M405.36 23.19a.52.52 0 0 0 .62-.11.52.52 0 0 1-.62.11z"/><path class="cls-3" d="M403.66 25.87a.68.68 0 0 1 .17-.12.69.69 0 0 0-.17.12z"/><path class="cls-3" d="M406.08 23.21c-.09 0-.13 0-.1-.13-.03.09.02.15.1.13z"/><path class="cls-3" d="M415.69 8.07c0-.11.07-.12.12-.11s-.09.04-.12.11z"/><path class="cls-3" d="M431.33 18.41l-.12-.06.12.06z"/><path class="cls-3" d="M431.27 32.82l.3-.7z"/><path class="cls-3" d="M415.94 8a.4.4 0 0 1-.13 0 .4.4 0 0 0 .13 0z"/><path class="cls-3" d="M422.33 28.15a.23.23 0 0 1 0 .16.23.23 0 0 0 0-.16z"/><path class="cls-3" d="M388.49 20.88l.21.25a.16.16 0 0 0 0 .1.16.16 0 0 1 0-.1z"/><path class="cls-3" d="M394.4 32.68a.32.32 0 0 0 .25.11 4 4 0 0 0 .23.47 4 4 0 0 1-.23-.47.32.32 0 0 1-.25-.11z"/><path class="cls-3" d="M397.7 45.84h-.07z"/><path class="cls-3" d="M394.71 42.07a1.43 1.43 0 0 1-.81.19 24.88 24.88 0 0 0 3.68 3.49l-.06-.48h-.08a.35.35 0 0 1-.08-.11c0-.16-.06-.33-.09-.49l-.06-.41.13-.08h-.08l-.14-.71.2-.07-.11-.5h-.11a.57.57 0 0 1-.12.65l-.17-.38.19.11-.21-1.22a.21.21 0 0 0 0-.35.13.13 0 0 1 0-.12.33.33 0 0 1 .12 0l.12-.08c-.19-.14 0-.26 0-.39l-.14-.16a1.08 1.08 0 0 1-.4.76h-.07v-.45l.16.11a.34.34 0 0 0 0-.14 3.09 3.09 0 0 1-.26-.24.44.44 0 0 1-.1-.26c.14-.13.13-.23 0-.33.23-.12.23-.12.16-.29h-.11l-.23-.2c-.11-.08-.24-.15-.15-.34a.49.49 0 0 0 0-.21h-.13l-.35-.37h.21c0 .19 0 .19.27.13a1.81 1.81 0 0 1 .05.28.18.18 0 0 0 .2.2l-.14-.61h-.23l.11-.3-.49-.11v-.7s0-.25-.06-.38l-.21-.33a.38.38 0 0 0-.08.17c0 .28.09.55.1.83a4.08 4.08 0 0 0 .21 1.49 1 1 0 0 1 .09.54.94.94 0 0 0 0 .4c0 .22.11.44.14.66a.3.3 0 0 1-.08.24 7.17 7.17 0 0 1-.79.56z"/><path class="cls-3" d="M388.9 20.15a.25.25 0 0 1 .05.46c-.14.1-.3.18-.47.27l.21.25a.16.16 0 0 0 0 .1.38.38 0 0 0 .22.3 2.9 2.9 0 0 1 .27.16.68.68 0 0 1-.65.21l-.17.2a.15.15 0 0 0 0 .08.12.12 0 0 1-.1.17q-.16.65-.26 1.25l.1.1a.15.15 0 0 0 0 .26.2.2 0 0 1 0 .3l-.11.12-.07 1.75v.14a.8.8 0 0 0 .15.16c.15.11.13.19 0 .31a1.27 1.27 0 0 0-.15.26q0 .69.08 1.36l.18-.63h.07l-.1.46h.07a.78.78 0 0 1 .51-.66.72.72 0 0 1 .23-.26.64.64 0 0 1 .27.17h.05a1.1 1.1 0 0 0-.09-.21c-.06-.09-.06-.15.05-.17a.59.59 0 0 0 .44-.41.37.37 0 0 1 .1-.12l.23-.18.13.53v-.4l.36.22a.25.25 0 0 1 .32-.22.77.77 0 0 1 .32.18 2 2 0 0 1 .17.14l-.18.2c.35-.15.35-.15.44-.11l-.25.16c.18.07.36-.16.45.08l-.16.11a1.62 1.62 0 0 1 .44 1h.1c.19.15.29.31.15.5.27.13.31-.18.5-.23.08.24-.2.25-.25.42l.36-.22-.1.56.22-.18.13-.06a.57.57 0 0 0 .19-.07.62.62 0 0 0 .09-.19l.09.07a.57.57 0 0 0 0 .56.14.14 0 0 0 .15.21 3.25 3.25 0 0 0 .34-.08v.42a1.47 1.47 0 0 1 0 .26l-.22.69-.05.17.16-.3a.26.26 0 0 1 .07.09c0 .24-.08.47-.12.71a.28.28 0 0 0 0 .16.5.5 0 0 1 .07.62h.2a.49.49 0 0 0 .13.3.32.32 0 0 0 .25.11 4 4 0 0 0 .23.47c.07.1 0 .31.23.3a.2.2 0 0 1-.05.09.32.32 0 0 1-.13 0 1.18 1.18 0 0 0 0 .17.42.42 0 0 0 0 .25.35.35 0 0 1 .08.46.18.18 0 0 0 0 .07c.23 0 .19.18.15.34a1.67 1.67 0 0 0 0 .3h.06l.27-.76h-.06l-.06.12h-.07c0-.27-.05-.53-.07-.8a.33.33 0 0 1 .11-.09v.12a.59.59 0 0 0 0 .13.12.12 0 0 0 .09 0 .18.18 0 0 0 0-.12c0-.1-.06-.2-.08-.28a.52.52 0 0 0 .05-.17c0-.12 0-.25-.07-.37a.58.58 0 0 1 0-.14.44.44 0 0 1 .18 0c.16.11.18.11.24-.09s.1-.15.2-.06l.11.08a2.46 2.46 0 0 1 .1-.23 1.21 1.21 0 0 1 .11-.15v.2l.29-.11.07-.49.17.41.15.06a.28.28 0 0 0-.08-.44c0-.1.11-.23-.1-.24l.12-.2h-.25l.25-.62.13.12c-.08-.18.26-.33.07-.49l.26-.38h-.25l.21-.69c.07-.24.16-.47.21-.71a5.29 5.29 0 0 0 0-.53c0-.1 0-.23.17-.22a.22.22 0 0 0 .08-.12.46.46 0 0 1 0-.36l-.2.16.3-.38h.08l-.1-.31.26-.44h-.15l.35-.52c-.33-.05-.09-.37-.21-.54a.83.83 0 0 0 .23-.59 2.46 2.46 0 0 1 .23-.64h-.17l.14-.17a.31.31 0 0 1 0-.26c.17-.2.36-.38.54-.56a.13.13 0 0 0 0-.05h-.17a.89.89 0 0 0 .44-.78l.21.19a9.24 9.24 0 0 1 .6-.88 9 9 0 0 1 .76-.71l-.25.12a.59.59 0 0 1 .33-.53.3.3 0 0 0 .19-.29.28.28 0 0 1 .19-.29.53.53 0 0 0 .15-.16l.2-.22a.72.72 0 0 1 .16-.09l-.61.29v-.06l.32-.31h-.2l.36-.52v.06a.41.41 0 0 0 .07-.11.35.35 0 0 0 0-.21.25.25 0 0 0-.2 0c-.19 0-.17-.09-.16-.22.18 0 .18-.1.23-.22a.73.73 0 0 1 .46-.67h-.06l-.08-.18a.4.4 0 0 1 .16-.48.72.72 0 0 0 .09-.13l-.28.25v-.31l-.35.28c.11-.16-.11-.14-.11-.18l.17-.21a.46.46 0 0 1 .18-.16.24.24 0 0 0 .27-.56.69.69 0 0 1-.17.06c-.09 0-.18 0-.12-.14s0-.23-.16-.22l.31-.29h-.28l.12-.13-.14-.07.23-.19-.15-.02v-.05h.23v-.36a2.23 2.23 0 0 1-.19-.33.33.33 0 0 1 .13-.15s.09 0 .12-.06a.58.58 0 0 1 .1-.15.23.23 0 0 1 .28.09 6.32 6.32 0 0 0 .36.53.21.21 0 0 0 0-.11c0-.17-.1-.34-.13-.52a1.38 1.38 0 0 1 0-.3l.21.07.1.06.18-.3.13.08-.07-.34h.21v.13h.06l.17-.36.19.28c-.15-.54-.14-.61.16-.77-.06-.16 0-.26.19-.23a2.88 2.88 0 0 1 .32.1l-.69-.58c-.18-.15-.17-.26 0-.37a1.23 1.23 0 0 1 .3-.07.23.23 0 0 1 0-.05.63.63 0 0 1 .45.07.31.31 0 0 0 .19 0l.36-.11-.19-.12.54-.16v-.09l-.49-.11.06-.15a.29.29 0 0 1-.23-.33 1.44 1.44 0 0 1 .31-.39c.28-.2.58-.36.87-.55a1.25 1.25 0 0 0 .19-.18h.67v-.12a.75.75 0 0 1-.39 0c-.15-.17-.24 0-.36 0a1 1 0 0 0-.15.08.74.74 0 0 1-.13.21 1.14 1.14 0 0 1-.3.15.45.45 0 0 1-.18 0l.09-.14.11-.09h-.29v-.07l.53-.23-.07-.11 1.19-.42-.2-.1a.42.42 0 0 1 .24-.07 2.47 2.47 0 0 0 .7-.08 1.32 1.32 0 0 1 .69.13c.38.13.75.29 1.13.44h.07c.13-.14.23 0 .34 0l.25.1c-.21-.11-.43-.21-.63-.34s-.37-.33-.57-.46c.21.13.42.27.64.38l.66.25v-.05l-.48-.34a.71.71 0 0 1-.09-.24.13.13 0 0 1 .05 0 .46.46 0 0 1 .21.07l.29.33a.31.31 0 0 0 .12.05 1.57 1.57 0 0 1 .62.23 2.64 2.64 0 0 0 .64.26v-.19l.54.25a.27.27 0 0 0 .17 0 3.62 3.62 0 0 0 .36-.15l-.53-.26c.18 0 .34.14.48-.05l-.38-.32.93.44-.19-.55.52.47.33.07v-.17l.38.18-.07-.58.33.14.34.14-.33-.44.07-.07.26.18s.25.26.44.08a.19.19 0 0 1 .12 0l.13.09-.18-.31.32.23-.42-.54h.06a1.22 1.22 0 0 1 .51.59c0-.11.07-.12.12-.11a.4.4 0 0 0 .13.06v-.15l.25.03.06-.18.37.35v-.26l.17.09.05-.19.2.1v-.18l.29.35c.18-.08.15.17.28.22v-.23l.17.13v-.2l.32.14-.47-.86h.05l.44.49.07-.14.54.75-.12-.43.17.3.16-.25.16.1.11.1v-.36l.14.16a.29.29 0 0 1 .09-.1.22.22 0 0 1 .13.09l.16.3-.15-.67h.05l.23.28-.2-.69h.06l.62.79-.16-.48h.05l.18.2v-.41h.05l.26.77v-.56l.15.32.05-.19.5.65v-.39a.8.8 0 0 0 .27.11.17.17 0 0 1 .19.16.41.41 0 0 0 .1.21 2.72 2.72 0 0 0 .37.2v-.26l.14.27.05-.38h.07l.34.78.1-.34a2.19 2.19 0 0 1 .5.94c0-.41.07-.45.32-.35l.17-.55a2.14 2.14 0 0 0 .14.45 1.23 1.23 0 0 0 .27.26l.21.08v-.26l.15.08v-.37l.07.13.17.47s.12.14.19.07v-.48h.07c0 .13.06.25.1.38a.34.34 0 0 0 .1.16.34.34 0 0 0 .15-.08l.08-.08.17.31a.2.2 0 0 0 .2-.28.37.37 0 0 1 .11-.42l.19.13a.32.32 0 0 1 .11.08c-.06.22.12.16.22.21a4.37 4.37 0 0 1 .47.27c.21.15.4.31.65.51a2.21 2.21 0 0 1 .18 1.19l.13-.48.23.12.16-.18.16.33h-.09000000000000002a.4.4 0 0 1 .25.4.43.43 0 0 1-.14.16 1.62 1.62 0 0 0 .42.11.21.21 0 0 1 .22.18 1 1 0 0 1 0 .68 3.5 3.5 0 0 1-.6 1.38l1-.69a.78.78 0 0 0 .17.3.69.69 0 0 1 .28.51c0 .14 0 .36.23.39l.08.24.1-.33h.09v.48a.21.21 0 0 1 .1.13.88.88 0 0 1 0 .21.79.79 0 0 1 0 .25c0 .13-.12.26-.17.39l.4-.41a.28.28 0 0 0 0 .09l.07.09a.14.14 0 0 1 0 .1.24.24 0 0 0 0 .32 2.92 2.92 0 0 1 .22.31l-.23.08a.71.71 0 0 0 .12.19.46.46 0 0 1 .18.55c-.05.15 0 .24.21.23.08.29.08.29 0 .37v-.19l-.12.06.03.12-.27-.21.14.56-.12-.06c0 .12 0 .23.05.35a1.27 1.27 0 0 0 0 .15c0 .16.09.31.14.47l.11.38h-.11v.18l-.2-.18.17.43-.17.08.22.51-.26-.1a1 1 0 0 0 0 .13.61.61 0 0 1 0 .42.3.3 0 0 0 .08.39.16.16 0 0 1 0 .29l-.05.21v.41l-.16.06.2.11a.3.3 0 0 0-.09.11v1.4900000000000002a1.49 1.49 0 0 1-.06.3.88.88 0 0 0-.06.15v.51a.59.59 0 0 1-.56-.29 1.56 1.56 0 0 0-.16-.12.24.24 0 0 1-.09-.09 2.3 2.3 0 0 1-.24-.42.76.76 0 0 0-.54-.45l.3.39-.56-.34.15.22-.31.08.24.29-.06.07-.26-.2a.3.3 0 0 0-.14-.09.53.53 0 0 1-.46-.13l-.37-.06-.13.2-.1-.15a.6.6 0 0 1-.28 0 .65.65 0 0 0-.56-.12.45.45 0 0 0 0-.19 1.15 1.15 0 0 0-.95-.31c-.15 0-.29 0-.27-.25l-.57.23a.32.32 0 0 1-.18 0 1.26 1.26 0 0 1-.21-.1l.15-.23a.54.54 0 0 0-.57.34.54.54 0 0 1-.28.11l-.34.09v.05l.11.05-.14.1-.15-.12.23-.29a4.49 4.49 0 0 0-.69.7l-.75.68.07.11-.39-.07v.06l.22.11h-.49v.07l.27.15a1.55 1.55 0 0 0-.15.36c0 .24.24.08.31.21l-.39.24a.32.32 0 0 0 .48-.16.21.21 0 0 1 .13-.08h1.2000000000000002a8.63 8.63 0 0 1 1-.07c.6 0 1.2.1 1.8.16l.65.09v.03l-.13.06a2.79 2.79 0 0 0 .51.08c.34 0 .68-.09 1-.06a6.47 6.47 0 0 1 1 .21l-.12.11.86.21-.38.07a1.16 1.16 0 0 1 .56.35l-.33.05h.12999999999999998l.25.08c0 .22-.19.19-.32.24h.06c.09 0 .22-.08.25.07a1 1 0 0 1 0 .33.47.47 0 0 0 0 .11.5.5 0 0 1-.12.51l.17.2-.15.06.37.11c.1.18.1.18.22.13a.32.32 0 0 1-.1-.14c.06-.18-.09-.17-.18-.22l-.15-.08.17-.2.05-.08.12.29c0-.15 0-.25.07-.35a.67.67 0 0 1 .11-.2c0-.06.1-.12.15-.18a1 1 0 0 1 .15.19.25.25 0 0 1 0 .19 2.26 2.26 0 0 0-.07.72.37.37 0 0 0 .12.36.53.53 0 0 1 .07.18h-.05l-.13-.17.04.77-.13.11h.05l.06.71a.37.37 0 0 1 .26.49l-.19-.17a.5.5 0 0 1 0 .21c-.14.14 0 .25 0 .38a3 3 0 0 0 .12.33.31.31 0 0 0 .13.08l.12-.1-.06-.09c.19-.08.21-.2.09-.35a.4.4 0 0 1 .14-.58.47.47 0 0 1 .13-.55.33.33 0 0 1 .5 0 .47.47 0 0 1 0-.22.26.26 0 0 0 0-.4 1 1 0 0 1-.19-.4.64.64 0 0 1 .1-.18.43.43 0 0 0 0-.24 1.89 1.89 0 0 0-.18-.28.53.53 0 0 1-.17-.36.34.34 0 0 1 .26-.35 2 2 0 0 1 0-.24v-.64a.4.4 0 0 1 .05-.27.34.34 0 0 0 .15-.32c0-.15 0-.32.08-.47a.39.39 0 0 1 .27-.36l-.12-.06.09-.26.15.19a.64.64 0 0 1 0-.65.36.36 0 0 0 .06-.56 1.74 1.74 0 0 1-.09-.26.22.22 0 0 1 0-.12.67.67 0 0 0 .07-.15 3 3 0 0 0 0-.31.28.28 0 0 0 .14-.32 1.12 1.12 0 0 1 .12-.72 1.13 1.13 0 0 0 .09-.63.4.4 0 0 1 .15-.38v.05l.21-1h.05l.08.27a2.27 2.27 0 0 1-.07-.93h.06l.19.39a.32.32 0 0 0-.1-.41c-.11-.09 0-.15.08-.17v-.27c.36 0 .11-.29.23-.4l.11.08-.16-.92h.05l.44.37-.1-.36-.09-.33.08.08v-.4a1.7 1.7 0 0 0 0-.31c0-.24-.1-.48-.15-.72a.31.31 0 0 1 .26-.4l-.26-1 .23.15h.05a.86.86 0 0 1-.18-.54 24.85 24.85 0 0 0-10-10.23v.26h-.05v-.29l-.42-.22c0 .21.08.42.13.63l.19.63h-.08l-.07-.29-.1.12-.09-1.17-.57-.29a.38.38 0 0 0 .15.43c-.19-.09-.21 0-.22.11l-.28.13.21-.74a24.56 24.56 0 0 0-4.41-1.62 24.6 24.6 0 0 0-2.63-.53l-.07.22h-.07l.05-.21a24.73 24.73 0 0 0-27.48 18.32.26.26 0 0 0 .22.15zm-.37 4.68h.07l.13.16-.23.18zm-.07 2.41h-.05l.28-.36h.05zm39.07-2.85a.78.78 0 0 1 .63.2.8.8 0 0 0 .29 0l.3.09a1 1 0 0 1-1.23-.29zm4.08-4.78l-.27-1.19v-.13l.17.31h-.05a.88.88 0 0 0 0 .23c0 .26.1.52.15.78h-.06zm.57-.76v-.49h.07v.49zm-.18-.61l.16-.45a.35.35 0 0 1-.16.45zm0-.84c.08.28.07.29-.12.38zm-5.36-8.4c-.18.19-.21.19-.36 0zm-2.38-4.69h.05l.44 1.27h-.06l-.12-.28.09.5a4.78 4.78 0 0 1-.4-1.45zm-.26 1.78h-.1v-.77a1.5 1.5 0 0 1 .1.77zm-.71-1.24l.16 1.15-.24-1.16zm-.49 2.29a4.51 4.51 0 0 1-.53-2.05zm-2.68-2.59l.18.67h-.08l-.22-.65zm-1.13.2l.12.46h-.06l-.13-.46zm-.51-2.09a2.35 2.35 0 0 1 .35 1.08h-.07c0-.15-.07-.3-.12-.44l-.22-.65zm-.48 1.48a3.75 3.75 0 0 1 .29.53 1.16 1.16 0 0 1 0 .42 1.61 1.61 0 0 1-.05.26l-.08-.25c-.08-.24-.16-.47-.22-.72-.05-.09-.09-.21.06-.24zm-1.42-2.32h.08l-.16.61h-.07zm-3 4.58l.5.47-.48-.49zm-4.49.6h.2l-.12-.19.33.37-.44-.15v-.03zm-6.09 5.59l.15.09-.15-.33c.34 0 .38.14.22.39a1.12 1.12 0 0 0-.09.27c-.19-.06-.13-.24-.13-.42zm-2.1 1l.1.47a.38.38 0 0 1-.1-.48z"/><path class="cls-3" d="M430.45 42.11a.59.59 0 0 0-.09-.19.9.9 0 0 0-.09.15 1.13 1.13 0 0 0 0 .19h-.19a.51.51 0 0 1 .16.16 2.19 2.19 0 0 1 0 .53c0 .22-.06.44-.1.65l.21-.22c0-.32.05-.64.08-1a2.22 2.22 0 0 0 .02-.27z"/><path class="cls-3" d="M402.52 25.82l-.06.09.1.17.21-.15v.19l.27-.12.07.11a1.28 1.28 0 0 1 1.05 0v-.3h-.51a.69.69 0 0 1 .17-.12l.62-.18-.26-.09v.1l-.18-.06v-.06l.86-.19-.18-.21h.73a3.11 3.11 0 0 0 .82-.07 3.33 3.33 0 0 1 .78-.14 4.35 4.35 0 0 0 .53-.1.22.22 0 0 0 .07-.07l-.2-.08a.94.94 0 0 1 .2 0l.39.01.5.13a1.1 1.1 0 0 0 .65.06 1 1 0 0 0 .27.06 1.61 1.61 0 0 1 .55 0c.17.08.32-.26.45 0h.1a.78.78 0 0 1 .17-.05h.31l-.12-.08h1.35l.35.09.46.1a.32.32 0 0 0 .12-.05l-.17-.1v-.07l1.15.36-.71-.38v-.07l.23.1-.11-.23a.5.5 0 0 1 .44.18.89.89 0 0 0 .25.17c.06 0 .14 0 .2.07l.3.24-.32-.38.25-.08-.5-.47.23-.15-.63-.7a.6.6 0 0 1-.21 0 1.25 1.25 0 0 1-.28-.15l-.65-.5v.18a.38.38 0 0 1-.45-.08.63.63 0 0 0-.72-.1v.18a.88.88 0 0 1-.19 0c-.1 0-.18-.08-.24.06a.39.39 0 0 1-.28 0 .29.29 0 0 0-.4 0 .23.23 0 0 1-.27.05 2.68 2.68 0 0 0-.56 0l-.51.1a4.75 4.75 0 0 1-.57 0 .36.36 0 0 1 0 .18.54.54 0 0 1-.21.12.34.34 0 0 1-.14 0h.13c-.11-.13-.32.07-.39-.15l.23-.15c-.1-.08-.16-.28-.29 0a.19.19 0 0 1-.19 0 .45.45 0 0 0-.54 0 .58.58 0 0 1-.54 0l.42-.18a.44.44 0 0 0-.25 0l-1.15.44-.25.1a.52.52 0 0 0 .62-.12l.36-.1a.47.47 0 0 1 .16 0 .39.39 0 0 1 0 .18.34.34 0 0 1-.19.08h-.57l.17.07v.07l-.53.06a.63.63 0 0 0-.23 0l-1 .62a1.06 1.06 0 0 0-.2.16c-.3.31-.59.63-.88.95a.89.89 0 0 0-.1.25c-.12 0-.23 0-.17.17h.32c-.18.12-.33.16-.51.03zm3.62-2.39l.61-.08a.42.42 0 0 1 .16.06v.08a2.39 2.39 0 0 1-.74 0v-.05zm.07.24l-.41.31a5.36 5.36 0 0 0 1-.08.31.31 0 0 1-.1.13l-1 .11-.06-.3zm0 1.14v.05l-.74.12v-.07zm-2.34.71c-.16.2-.19.21-.35 0zm-.26.34a.3.3 0 0 1-.41.1.4.4 0 0 1 .45-.09z"/><path class="cls-3" d="M402.4 26l.06-.09z"/><path class="cls-3" d="M409.13 28.25l.15-.22h.05c0 .34.4.16.43.44a.36.36 0 0 1 .62-.07.34.34 0 0 0 0-.16.49.49 0 0 1 .1-.56 1.62 1.62 0 0 0 .14-.86c0-.25.07-.31.29-.22l.45.2.5.18s.49.26.74.37c.1 0 .22 0 .19.19a1.34 1.34 0 0 1-.11.29.17.17 0 0 1-.1 0l-.5.07v.1l.28.1a2.6 2.6 0 0 0 .37.08.77.77 0 0 0 .21 0l-.06-.18a.26.26 0 0 1 .21-.38h.15a.36.36 0 0 0-.37-.27l.06-.19a.76.76 0 0 0-.16 0 .38.38 0 0 1-.42-.44c-.23.22-.35.1-.45-.1a.16.16 0 0 0-.13-.07.24.24 0 0 1-.31-.17.91.91 0 0 1-.17 0l-.19-.07a2 2 0 0 1-.52-.14 1.28 1.28 0 0 0-.9-.2 3.71 3.71 0 0 1-.47.05h-.66a4.47 4.47 0 0 0-.72.17c-.21.07-.42.16-.62.24a.36.36 0 0 0-.32.2.31.31 0 0 1-.26 0c-.11-.09 0-.11.08-.16a.26.26 0 0 0 0-.08c-.17.07-.42 0-.29.33a.15.15 0 0 1-.07.13.15.15 0 0 1-.14 0c-.1-.16-.22-.08-.33 0l-.23.08a.43.43 0 0 1 0 .09 1.17 1.17 0 0 1 0 .14l-.16-.14c0 .2-.06.34-.26.35a.17.17 0 0 0 0 .08.6.6 0 0 1-.53.37h-.19a1.22 1.22 0 0 1 .31.28.91.91 0 0 1 0 .35l.4.26a.65.65 0 0 1-.14.09.15.15 0 0 0 0 .11.12.12 0 0 0 .06.08 1.07 1.07 0 0 0 .34-.1 3.42 3.42 0 0 0 .4-.34l.06.36.82-.45-.26.23.22.12.75-.4c0-.15-.15-.11-.27-.07a.41.41 0 0 1-.23 0c0-.15-.13-.13-.23-.14h-.4l.19-.07a.43.43 0 0 0 .29-.33l-.09-.06-.13-.1.23-.14.5-.3a.2.2 0 0 1 .17.08 3.19 3.19 0 0 1 .23.68.36.36 0 0 0 .24.28 1.63 1.63 0 0 0 .17 0 2.71 2.71 0 0 0 .99.01zm.11-1.33a1.07 1.07 0 0 1 .13.26.31.31 0 0 1-.09.14 2.13 2.13 0 0 1-.21-.21 1.45 1.45 0 0 1 .17-.19z"/><path class="cls-3" d="M427.58 27.67a.34.34 0 0 0-.17-.12c-.29-.08-.59-.14-.88-.24l-.65-.28a.2.2 0 0 0-.13 0 1.48 1.48 0 0 1-.63 0 .41.41 0 0 1-.14-.06.32.32 0 0 0-.16 0 4.59 4.59 0 0 0-1.22.4 5 5 0 0 1-.49.25l-.11-.13v.05a.19.19 0 0 0 .27.07l.35-.17v1.19l.82.32s.26 0 .35-.22l.14.38c.31.05.57.07.81.14s.29.19.45.22a1.14 1.14 0 0 1 .76.57l-.07.09a.27.27 0 0 0 .11.07 1.65 1.65 0 0 0 .25 0v-.37l.41.31-.13-.36a.28.28 0 0 0 .11 0c.18-.17.19.06.26.12a.58.58 0 0 1 .09.14l.14-.1a.61.61 0 0 0 .48.36l.3.64.06-.13.17.24-.4-.85a.81.81 0 0 0 .54.48l.05-.05-.4-.47v-.06l.38.17.31-.08c-.17-.33-.16-.39 0-.41-.16-.11-.33-.21-.48-.33a.33.33 0 0 1-.12-.19v-.97h-.01a.64.64 0 0 0 0 .14c0 .19-.05.25-.22.16a.93.93 0 0 1-.15-.15 1.87 1.87 0 0 0-.41-.34 1.39 1.39 0 0 1-.64-.43zm-2.59.57a.77.77 0 0 1-.17-.16.31.31 0 0 1 .12-.11.72.72 0 0 1 .23.12.72.72 0 0 1-.17.15zm2.67.65a.28.28 0 0 1-.3.3v.36l-.58-.09a.43.43 0 0 0-.16.08l-.26-.11v-.17h-.010000000000000009l.37-1.26a.77.77 0 0 1 .74.39 1 1 0 0 1 .4.6z"/><path class="cls-3" d="M415.21 46.81l-.65-.24a.13.13 0 0 1 0-.07.44.44 0 0 1-.18.06 3.32 3.32 0 0 1-.8-.14.44.44 0 0 0-.23 0 1 1 0 0 1-.84-.28.19.19 0 0 0-.14 0 .56.56 0 0 0-.09.06 1 1 0 0 0-.59-.14 5 5 0 0 1-1.63-.58c-.39-.22-.8-.41-1.2-.6a1.63 1.63 0 0 0-.28-.08.71.71 0 0 1 .26.23.8.8 0 0 0 .26.38.28.28 0 0 0 .39.12 1 1 0 0 1 .47.44h.18v.3l.16-.2a1.43 1.43 0 0 1 .06.18.35.35 0 0 0 .46.34c.23-.05.24 0 .27.19l.36-.09.25.18.07-.16a.69.69 0 0 1 .39.11 1.05 1.05 0 0 1 .07.27l.31-.21c.18.22.28-.19.46-.06v.21a.27.27 0 0 1 .45-.05.17.17 0 0 0 .07 0h.68a3.48 3.48 0 0 1 .59 0c.39.08.77.19 1.15.3l.79.24a1.51 1.51 0 0 0 .42.09c.33 0 .67 0 1-.07h.8699999999999999a.72.72 0 0 0 .63 0 .27.27 0 0 1 .09 0 1.84 1.84 0 0 0 .4 0 .38.38 0 0 1 .4.34.35.35 0 0 0 .39.35l-.23-.31.31-.35c.12.21.4.32.24.64l.43.24.07-.33.05.18.23-.09a.23.23 0 0 1 .14 0c.17.2.25 0 .35-.08l.21.14.06-.06-.21-.25.28-.12v.15h.14v-.29l.19.07c0-.08.09-.17.13-.26a1.32 1.32 0 0 1 .11-.29.61.61 0 0 1 .26-.2c.09 0 .18 0 .15-.15a.37.37 0 0 1 0-.14l.37-.17a2.75 2.75 0 0 0 .24-.15v-.05h-.39c.24-.25-.16-.3-.1-.45a.49.49 0 0 0-.22.07 2 2 0 0 0-.36.51.77.77 0 0 1-.68.5h-1.08a6.81 6.81 0 0 0-1.1-.14l-.21.1a3.22 3.22 0 0 0-.57.07c-.14 0-.22.06-.29-.07a.32.32 0 0 1-.44 0 .13.13 0 0 0-.09 0l-.37.08-.55.18a.51.51 0 0 1-.24.08h-.16a.33.33 0 0 0-.16 0 2 2 0 0 1-.84 0c-.17 0-.34-.09-.52-.11s-.47-.58-.87-.37zm6.19.83l.1.52h-.08l-.09-.52h.07z"/><path class="cls-3" d="M388.12 29.27l.08-.86-.13.47.05.39z"/><path class="cls-3" d="M431.37 32.9a1.22 1.22 0 0 0-.08.33 7.34 7.34 0 0 1-.21 1.43 1.26 1.26 0 0 0 .21.69h.07v-1.08l.26.4.11-.62c-.22-.15 0-.21.05-.31a.85.85 0 0 0 .06-.33c0-.33-.07-.66-.09-1a.28.28 0 0 0-.23-.3l-.3.7z"/><polygon class="cls-3" points="431.57 32.12 431.57 32.12 431.56 32.12 431.57 32.13 431.57 32.13 431.57 32.12 431.57 32.12 431.57 32.12"/><path class="cls-3" d="M420.34 41a.22.22 0 0 0 .15.11.39.39 0 0 0 .17-.07l.22.39-.11.18v.05a1.07 1.07 0 0 1 .15-.09.21.21 0 0 1 .15 0l.34.41c-.21.06-.21.06-.08.22a.7.7 0 0 0 .14-.29 1.11 1.11 0 0 0-.16-.4.45.45 0 0 1 .23-.68l.65-.33a4.56 4.56 0 0 0-.67.1c-.13 0-.23 0-.27-.13s-.11-.08-.18 0-.43.26-.64.4a.29.29 0 0 0-.09.13z"/><path class="cls-3" d="M430.6 40.45a.31.31 0 0 0 .1-.12 3.15 3.15 0 0 0 .16-1.13.08.08 0 0 1 0-.06c.2-.14.09-.28 0-.44a.31.31 0 0 1 0-.23.74.74 0 0 0-.07-.82.35.35 0 0 0-.08-.08l-.07.23a.48.48 0 0 0 0 .13v1.22l-.07.45s.03.55.03.85z"/><path class="cls-3" d="M422.3 37.19c-.23-.15-.23-.21-.09-.34l-.27-.37a.52.52 0 0 0-.11-.46.63.63 0 0 0-.26 0l.1.34a.81.81 0 0 0-.14.29.9.9 0 0 0 .33.52v.45l.23.12h.05c0-.11-.08-.21-.11-.32a.66.66 0 0 1 0-.17h.14a.9.9 0 0 0 .13-.06z"/><path class="cls-3" d="M415.18 23.81l-.17-.31a2.53 2.53 0 0 0-1.15-.81.16.16 0 0 0-.09 0l.38.79-.07-.25h.06l.16.36.06-.08.25.27.1-.06-.61-.74h.15a.81.81 0 0 1 .4.34 2.88 2.88 0 0 1 .73 1.23.29.29 0 0 0 .08.07.85.85 0 0 0 0-.31c-.04-.15-.17-.31-.28-.5z"/><path class="cls-3" d="M390.52 37.07a1.63 1.63 0 0 0-.08-.26l-.37-.7a1.72 1.72 0 0 1-.08-1.2 1.88 1.88 0 0 0 0-1 1.11 1.11 0 0 0 .01.09c-.05.41-.12.81-.15 1.22a2.78 2.78 0 0 0 0 .5c.11.25.22.5.34.75z"/><path class="cls-3" d="M422.27 28a1 1 0 0 0-.52.76h.86a.18.18 0 0 0-.15-.25.13.13 0 0 1-.09-.07.31.31 0 0 1 0-.09.23.23 0 0 0 0-.16.17.17 0 0 0-.1 0z"/><path class="cls-3" d="M407.44 28.66a.47.47 0 0 0-.29.58 4.39 4.39 0 0 1 .43-.43 3.76 3.76 0 0 1 .5-.27.15.15 0 0 0-.24-.1l-.4.22z"/><path class="cls-3" d="M425.85 29.64a.89.89 0 0 0 .34.71.62.62 0 0 0-.35-.89l.16.3-.07.05z"/><path class="cls-3" d="M390.35 32.56a1.72 1.72 0 0 0 .05-1l-.32 2h.08c.07-.35.14-.67.19-1z"/><path class="cls-3" d="M413.67 28.26a.18.18 0 0 0 .07-.13 3.24 3.24 0 0 0-.21-.31.62.62 0 0 1-.15.19 1.19 1.19 0 0 1-.3.07v.09z"/><path class="cls-3" d="M429.06 28.12a1.38 1.38 0 0 0-.84-.79l.8.84z"/><path class="cls-3" d="M389.08 27.7l1.29.11a4.46 4.46 0 0 0-1.28-.23v.12z"/><path class="cls-3" d="M403.45 13.58h-.05l-.15.39.27.35z"/><path class="cls-3" d="M416.13 39.84a.14.14 0 0 0 .11-.06.17.17 0 0 0-.06-.13l-.5-.26a.66.66 0 0 1 .21.24c.01.22.11.21.24.21z"/><path class="cls-3" d="M421.08 28.27a.61.61 0 0 1 .11.17v-.44c0-.3 0-.3-.09-.34a.57.57 0 0 1 0 .29c-.23.15-.16.22-.02.32z"/><path class="cls-3" d="M409.77 29.15a.85.85 0 0 0-.27-.75 1.32 1.32 0 0 0 0 .13.69.69 0 0 1 .1.34c-.1.22.08.21.17.28z"/><path class="cls-3" d="M412.93 26.16l-.57-.33a.55.55 0 0 0 .54.38z"/><path class="cls-3" d="M430.29 40.93a.43.43 0 0 0-.14.14 1.69 1.69 0 0 0 .15.31h.08v-.42z"/><path class="cls-3" d="M414.87 40l-.94-.2.93.22z"/><path class="cls-3" d="M391.73 36.2l.64-.06a.47.47 0 0 0-.64.06z"/><path class="cls-3" d="M395.83 38.12c-.16 0-.32.11-.29.21h.16l-.07.14c.23-.04.13-.23.2-.35z"/><path class="cls-3" d="M395.26 35.9l-.19-.11-.14.17.2.14z"/><path class="cls-3" d="M395.51 37.37a.37.37 0 0 1 .18 0c0-.25-.28-.08-.35-.23-.03.21-.05.33.17.23z"/><path class="cls-3" d="M393.75 36.23l-.37-.07c.26.24.26.24.37.07z"/><path class="cls-3" d="M430.19 41.52l.06.3h.25l-.28-.34z"/><path class="cls-3" d="M395.44 36.51h-.07c.06.09-.06.32.23.25z"/><path class="cls-3" d="M402.47 26.49l.69.09v-.07l-.68-.07z"/><path class="cls-3" d="M408.18 28.93l.27-.37a.28.28 0 0 0-.27.37z"/><path class="cls-3" d="M421.71 37.51l-.07-.35c-.15.12-.13.23.07.35z"/><path class="cls-3" d="M414.84 24l.3.44a.74.74 0 0 0-.3-.44z"/><path class="cls-3" d="M429.89 43.75v.12l.11-.1a.1.1 0 0 0-.11-.02z"/><path class="cls-3" d="M421.4 35.87a.15.15 0 0 0 .1.09.13.13 0 0 0 .09-.07.77.77 0 0 0-.11-.17.4.4 0 0 0-.08.15z"/><path class="cls-3" d="M421.51 35.32l.09.1h.21a.52.52 0 0 0-.16-.09.43.43 0 0 0-.14-.01z"/><path class="cls-3" d="M398.12 43.53a.37.37 0 0 0-.11.37h.07z"/><path class="cls-3" d="M406.08 23.21a3.22 3.22 0 0 0 .35-.1h-.43c-.05.06 0 .12.08.1z"/><polygon class="cls-3" points="405.98 23.08 405.98 23.08 405.98 23.08 405.98 23.08 405.98 23.07 405.98 23.08"/><path class="cls-3" d="M390.54 28l.26.2v-.05l-.25-.21z"/><path class="cls-3" d="M431.34 19.59l-.16-.28h-.08l.17.27z"/><path class="cls-3" d="M423.4 4.42c0-.07 0-.2.22-.11a.38.38 0 0 1-.15-.43l-.15-.07-.21.74z"/><path class="cls-3" d="M428.15 24.59a.78.78 0 0 0-.63-.2 1 1 0 0 0 1.22.34l-.3-.09a.8.8 0 0 1-.29-.05z"/><path class="cls-3" d="M424.55 5.36l.12.28h.06l-.44-1.27h-.05a4.78 4.78 0 0 0 .38 1.51z"/><path class="cls-3" d="M422.28 5.08a4.51 4.51 0 0 0 .53 2.05z"/><path class="cls-3" d="M418.13 5.1l.08.25a1.61 1.61 0 0 0 .05-.26 1.16 1.16 0 0 0 0-.42 3.75 3.75 0 0 0-.26-.53c-.11 0-.07.15 0 .24 0 .24.06.48.13.72z"/><path class="cls-3" d="M403.17 13a1.12 1.12 0 0 1 .09-.27c.16-.25.12-.34-.22-.39l.11.33-.15-.08c0 .18-.06.36.17.41z"/><path class="cls-3" d="M424.12 5.29l.1-.12.07.29h.08l-.19-.63-.13-.63z"/><path class="cls-3" d="M431.54 18.58h.05l-.17-.31v.13l.27 1.19h.06c-.05-.26-.11-.52-.15-.78a.88.88 0 0 1-.06-.23z"/><path class="cls-3" d="M431.33 18.41z"/><path class="cls-3" d="M418.76 3.77h.07a2.35 2.35 0 0 0-.35-1.08h-.06l.22.65.12.43z"/><path class="cls-3" d="M423.45 6l-.19-1.17h-.09l.24 1.17z"/><path class="cls-3" d="M424 6.09a1.5 1.5 0 0 0-.11-.76v.77h.11z"/><path class="cls-3" d="M420.3 5.22l-.18-.67h-.07l.17.67z"/><path class="cls-3" d="M416.2 1.87l.07-.22h-.1l-.05.21z"/><path class="cls-3" d="M414.07 6.87l-.5-.47.43.52z"/><path class="cls-3" d="M409.19 6.84l.1.16h-.2l.44.15z"/><path class="cls-3" d="M388.6 24.79h-.07v.3l.23-.18z"/><path class="cls-3" d="M416.61 1.84h-.08l-.15.61h.07z"/><polygon class="cls-3" points="418.92 2.19 418.91 2.19 418.91 2.19 418.92 2.19"/><path class="cls-3" d="M432 17.4l-.12.38c.22-.09.22-.1.12-.38z"/><path class="cls-3" d="M432.14 18.85v-.49h-.07z"/><path class="cls-3" d="M426.64 9h-.36c.15.23.19.23.36 0z"/><path class="cls-3" d="M400.9 13.58a.38.38 0 0 0 .1.47z"/><path class="cls-3" d="M424.56 4.68v.02999999999999997h.05z"/><path class="cls-3" d="M419.12 5.21l-.12-.45h-.07l.13.46z"/><path class="cls-3" d="M388.4 27.19h.05l.28-.36h-.05z"/><path class="cls-3" d="M432.12 17.8l-.16.45a.35.35 0 0 0 .16-.45z"/><path class="cls-3" d="M406.69 24.07a.31.31 0 0 0 .1-.13 5.36 5.36 0 0 1-1 .08l.41-.31-.59.2.06.3z"/><path class="cls-3" d="M406.87 23.5v-.08a.42.42 0 0 0-.16-.06l-.61.08v.05a2.39 2.39 0 0 0 .77.01z"/><path class="cls-3" d="M406.25 24.87v-.06l-.74.1v.09z"/><path class="cls-3" d="M403.65 25.87a.4.4 0 0 0-.41.1.3.3 0 0 0 .41-.1z"/><polygon class="cls-3" points="403.66 25.87 403.65 25.86 403.65 25.87 403.66 25.87"/><path class="cls-3" d="M403.91 25.53h-.35c.16.21.19.2.35 0z"/><path class="cls-3" d="M409.38 27.18a1.07 1.07 0 0 0-.13-.26 1.45 1.45 0 0 0-.16.19 2.13 2.13 0 0 0 .21.21.31.31 0 0 0 .08-.14z"/><path class="cls-3" d="M426.72 28l-.41 1.15h.010000000000000009v.18l.26.11a.43.43 0 0 1 .16-.08l.58.09v-.36a.28.28 0 0 0 .3-.3l.24.21a1 1 0 0 0-.4-.6.77.77 0 0 0-.74-.4z"/><path class="cls-3" d="M424.82 28.08a.77.77 0 0 0 .17.16.72.72 0 0 0 .19-.15.72.72 0 0 0-.23-.12.31.31 0 0 0-.13.11z"/><path class="cls-3" d="M421.5 48.15l-.1-.52h-.07l.09.52h.08z"/><path class="cls-4" d="M411.22 1.78a25 25 0 1 0 25 25 25 25 0 0 0-25-25zm0 41.94a16.9 16.9 0 1 1 16.9-16.9 16.9 16.9 0 0 1-16.9 16.9z"/><path class="cls-5" d="M534.63 9.5a.58.58 0 0 1-.12.71 1 1 0 0 0-.08 1.05l-.23-.3-.15.43.19.09a.12.12 0 0 1 0 .06.63.63 0 0 0-.43.58l-.13.76a.55.55 0 0 1-.24.52.65.65 0 0 0-.09.44v1a3.29 3.29 0 0 0 .07.38.55.55 0 0 0-.41.56.85.85 0 0 0 .27.57 3 3 0 0 1 .29.45.69.69 0 0 1-.07.39 1 1 0 0 0-.17.3 1.59 1.59 0 0 0 .31.64.42.42 0 0 1 .08.65.75.75 0 0 0 0 .35.53.53 0 0 0-.81.07.75.75 0 0 0-.21.89.65.65 0 0 0-.23.93c.2.25.16.43-.14.56l.1.15-.2.15a.45.45 0 0 1 .36.48c0 .53.11 1.06.14 1.59a1.36 1.36 0 0 1-.09.54c-.06.17-.44.27-.08.5l-.19 1-.37-.61c0 .36 0 .64-.06.92v.83h-.11a2 2 0 0 1-.34-1.11 11.81 11.81 0 0 0 .33-2.3 2 2 0 0 1 .14-.54l-.17-.18.48-1.12a.5.5 0 0 1-.2-.12 4.9 4.9 0 0 1-.2-.52c-.07-.2-.27-.38 0-.6a.8.8 0 0 0 0-.33l.31.28a.6.6 0 0 0-.41-.79l-.1-1.15h-.08l.21-.17-.11-1 .21.28h.08a.85.85 0 0 0-.11-.29.59.59 0 0 1-.2-.58 3.64 3.64 0 0 1 .11-1.17.4.4 0 0 0 0-.31 1.6 1.6 0 0 0-.24-.3l-.24.29a1.09 1.09 0 0 0-.18.32c0 .16 0 .33-.11.57l-.19-.46-.09.14-.28.32.24.12c.15.07.38.06.28.35a.51.51 0 0 0 .03.24c-.19.09-.19.09-.35-.2l-.6-.18.25-.1-.27-.32a.8.8 0 0 0 .2-.81.76.76 0 0 1 .05-.18 1.54 1.54 0 0 0 .08-.52c0-.24-.26-.08-.4-.11h-.1c.21-.08.5 0 .52-.38l-.4-.14v-.06l.26-.06-.47-.07v-.1l.54-.09a1.86 1.86 0 0 0-.9-.57l.59-.11-1.39-.34.19-.18a10.42 10.42 0 0 0-1.57-.35c-.54 0-1.09.09-1.63.1a4.48 4.48 0 0 1-.83-.14l.23-.09v-.08c-.35 0-.69-.1-1-.14-1-.1-1.92-.22-2.89-.27a13.88 13.88 0 0 0-1.65.11l-.86.06c-.35 0-.71 0-1.06.07a.33.33 0 0 0-.21.13.51.51 0 0 1-.77.25l.63-.39c-.12-.21-.56.05-.5-.34a2.49 2.49 0 0 1 .24-.58l-.45-.09v-.12h.78v-.1l-.42-.22v-.1l.43.1v-.07l-.06-.22c.41-.37.8-.73 1.21-1.09a7.22 7.22 0 0 1 1.11-1.13l.07.12-.36.46.25.19.23-.16-.17-.09v-.09l.54-.14a.87.87 0 0 0 .45-.17.87.87 0 0 1 .91-.54l-.23.36a2 2 0 0 0 .34.16.52.52 0 0 0 .3 0l.92-.37c0 .45.19.43.43.4a1.86 1.86 0 0 1 1.53.5.72.72 0 0 1 .07.3 1 1 0 0 1 .91.2 1 1 0 0 0 .45-.05l.15.24.21-.32.38.19a.86.86 0 0 0 .74.22.49.49 0 0 1 .22.15l.42.32.1-.11-.39-.49.5-.13-.24-.36.91.55-.48-.62a1.22 1.22 0 0 1 .87.72 3.7 3.7 0 0 0 .38.68.39.39 0 0 0 .15.14 2.52 2.52 0 0 1 .25.19 1 1 0 0 0 .9.46v-.82a1.4 1.4 0 0 1 .1-.25 2.4 2.4 0 0 0 .1-.49v-1.1s0-.87.06-1.31a.42.42 0 0 1 .14-.16l-.27-.15h.07a25 25 0 0 0-32.61.59.63.63 0 0 0 .46.08c.11-.23.24-.14.39-.09a1.41 1.41 0 0 0 .3 0l.02-.25a1 1 0 0 1 1.16.16.62.62 0 0 0 .73.13l-.07-.29v-.06c.35.27.69.54 1 .8a2 2 0 0 0 .44.25 1 1 0 0 0 .34 0l1 1.12-.19.15.81.76-.4.12.51.61-.07.07c-.16-.13-.31-.27-.48-.38s-.22-.06-.32-.12a1.44 1.44 0 0 1-.41-.27.81.81 0 0 0-.71-.29l.18.36-.37-.15-.06.11 1.15.62-1.79-.44v.11l.28.16a.51.51 0 0 1-.2.09l-.74-.16c-.19 0-.37-.11-.56-.14h-.98l-1.25-.18v.12l.19.13a4.3 4.3 0 0 0-.46 0 1.25 1.25 0 0 0-.28.08l-.16.05c-.21-.45-.46.09-.73 0a2.59 2.59 0 0 0-.88 0 1.57 1.57 0 0 1-.44-.09.85.85 0 0 1-.29.05 25.09 25.09 0 0 0-1.53 2.15 5.86 5.86 0 0 1 .82-.18h1.06a6 6 0 0 0 .7-.19 2.06 2.06 0 0 1 1.44.33 3.26 3.26 0 0 0 .84.22c.11 0 .2.08.31.11a1.46 1.46 0 0 0 .28 0 .38.38 0 0 0 .5.27.26.26 0 0 1 .21.12c.17.33.37.52.73.17a.62.62 0 0 0 .67.72 1.22 1.22 0 0 1 .26.07l-.1.3a.57.57 0 0 1 .6.43h-.24a.41.41 0 0 0-.34.6l.09.23a1.24 1.24 0 0 1-.33.05 4.17 4.17 0 0 1-.6-.12c-.16 0-.31-.1-.46-.16v-.12l.8-.11a.27.27 0 0 0 .16 0 2.16 2.16 0 0 0 .18-.46c.06-.24-.14-.24-.3-.31-.41-.18-.79-.41-1.19-.6l-.8-.29s-.48-.23-.72-.32-.48 0-.46.36a2.61 2.61 0 0 1-.23 1.38.79.79 0 0 0-.17.89.55.55 0 0 1 0 .26.59.59 0 0 0-1 .12c0-.45-.74-.17-.69-.71h-.09l-.24.35a4.35 4.35 0 0 1-1.66-.08 2.63 2.63 0 0 1-.28 0 .59.59 0 0 1-.39-.45 5.13 5.13 0 0 0-.36-1.09.18.18 0 0 0-.06-.06q-.44.84-.82 1.72a.67.67 0 0 0 .38 0c.2-.06.36-.12.43.11l-1.14.62a25 25 0 0 0 6 27.2 8.44 8.44 0 0 0 2 .61 1.53 1.53 0 0 1 .94.23.91.91 0 0 1 .15-.1.3.3 0 0 1 .22 0 1.62 1.62 0 0 0 1.36.46.7.7 0 0 1 .37 0 5.34 5.34 0 0 0 1.28.22.7.7 0 0 0 .28-.09.21.21 0 0 0 .07.11l1.12.37c.63-.34.93.4 1.45.45l.84.17a3.25 3.25 0 0 0 1.35.07.52.52 0 0 1 .25.07c.09-.12.1-.09.26 0a.81.81 0 0 0 .38-.14v.08l.88-.29.6-.14a.21.21 0 0 1 .14 0 .52.52 0 0 0 .7 0c.12.22.25.2.47.12a5.18 5.18 0 0 1 .91-.12l.34-.16a11 11 0 0 1 1.78.23c.45 0 .91 0 1.36-.07h.37a1.24 1.24 0 0 0 1.09-.81 3.25 3.25 0 0 1 .58-.82.79.79 0 0 1 .35-.11c-.11.24.55.32.15.72l.63-.05.12.06a4.43 4.43 0 0 1-.38.24l-.6.27-.08-.06a.59.59 0 0 0-.07.23c0 .23-.1.19-.24.24a1 1 0 0 0-.42.33 2.13 2.13 0 0 0-.17.46l-.2.41-.3-.11v.46h-.08v-.24l-.46.19.34.4-.09.09-.34-.23c-.15.17-.28.46-.56.13a.37.37 0 0 0-.22 0l-.36.14-.08-.29h-.06l-.11.53-.69-.38c.25-.52-.2-.7-.39-1l-.49.57.37.49a.57.57 0 0 1-.62-.56.61.61 0 0 0-.65-.56 3 3 0 0 1-.64-.07.43.43 0 0 0-.14 0c-.33.35-.68 0-1 0h-.49l-.92.07c-.54 0-1.08.1-1.62.11a2.42 2.42 0 0 1-.68-.15l-1.27-.38c-.61-.17-1.22-.35-1.84-.48a5.6 5.6 0 0 0-1 0h-1.09a.27.27 0 0 1-.12 0 .43.43 0 0 0-.72.09v-.33c-.3-.21-.44.45-.74.1l-.5.35a1.69 1.69 0 0 0-.12-.43 1.1 1.1 0 0 0-.63-.18l-.08.2a25 25 0 0 0 27.55 1.85l.13-.19a1.54 1.54 0 0 0 .1-.39 1 1 0 0 0-.22-.08c0-.21 0-.21.44-.11v.41a.55.55 0 0 0 0 .09l.28-.18c-.08-.22-.06-.36.26-.44-.38-.19-.36-.34-.08-.52a.32.32 0 0 0 0-.32l-.47.41a3.45 3.45 0 0 1 .36-1.91 1.84 1.84 0 0 1-.16 1.11h.21l.32.38c.19-.61.14-.83-.25-.93l.23-.56-.31-.16c0-.35.08-.68.14-1a.64.64 0 0 1 .25-.17v.36h.11c0-.21.08-.43.13-.64l.09-.34c.06-.27.11-.55.16-.83.1-.62.2-1.24.27-1.87a3.52 3.52 0 0 0 0-.85.83.83 0 0 0-.26-.26h.3a1.81 1.81 0 0 1 .06-.31 1.44 1.44 0 0 1 .15-.25.94.94 0 0 1 .15.31 3.58 3.58 0 0 1 0 .56c-.05.63-.1 1.25-.16 1.88s-.14 1.47-.22 2.2c0 .4-.12.8-.19 1.19-.15.84-.27 1.68-.46 2.52v.14a25 25 0 0 0 5.2-37.18l.07.11zm-32.4 2.9a.88.88 0 0 1-.87-.6l.92.53zm-8.55 4.19a7.09 7.09 0 0 0-.7.69.76.76 0 0 1 .47-.93c.22-.1.43-.23.65-.35a.24.24 0 0 1 .39.16 6.07 6.07 0 0 0-.81.43zm1 .2a.45.45 0 0 1 .44-.59zm2.33-.1a1.11 1.11 0 0 0-.17-.54 2.13 2.13 0 0 1 0-.22 1.37 1.37 0 0 1 .44 1.21c-.28-.14-.53-.14-.28-.46zm6.51-1c-.31 0-.62-.1-.94-.15v-.12a1.91 1.91 0 0 0 .42-.12 1 1 0 0 0 .24-.3 5.22 5.22 0 0 1 .34.5.29.29 0 0 1-.11.21zm1.89 19l-1.49-.35v-.08l1.51.33zm-.13-25.83h.07c.05.3.53.32.42.75zm1.16 1.06a.46.46 0 0 1-.13-.11 4.64 4.64 0 0 0-1.17-2 1.31 1.31 0 0 0-.65-.54h-.24c.27.48.76.75 1 1.18l-.15.1-.41-.43-.1.12-.26-.59h-.1l.11.4-.62-1.28a.25.25 0 0 1 .15-.06 4.08 4.08 0 0 1 1.85 1.3c.11.15.18.33.27.5s.37.57.52.87a1.36 1.36 0 0 1-.08.54zm1 24.42c-.19 0-.37 0-.41-.28a1.06 1.06 0 0 0-.33-.39v-.06c.27.14.54.27.8.42a.27.27 0 0 1 .09.21.23.23 0 0 1-.15.1zm8.92-7.34a.84.84 0 0 1 .25.15v.07h-.34l-.15-.15a.69.69 0 0 1 .24-.07zm-.32.7a1.23 1.23 0 0 1 .17.28.21.21 0 0 1-.15.12.24.24 0 0 1-.16-.15.64.64 0 0 1 .1-.25zm-.68-12.47a.92.92 0 0 0 .05-.47c.17.07.16.07.15.54v.7a1 1 0 0 0-.17-.28c-.22-.15-.34-.27-.03-.49zm.82 20.69a.73.73 0 0 0-.36 1.1 1.78 1.78 0 0 1 .26.65 1.13 1.13 0 0 1-.23.47c-.21-.25-.21-.25.13-.35-.18-.23-.35-.45-.54-.66a.34.34 0 0 0-.23 0 1.72 1.72 0 0 0-.24.14l-.07-.09.18-.29-.36-.63a.63.63 0 0 1-.27.12.35.35 0 0 1-.24-.17.47.47 0 0 1 .18-.31c.34-.23.69-.43 1-.65.12-.07.25-.15.29.05s.23.26.44.21a7.32 7.32 0 0 1 1.08-.16c-.32.22-.67.41-1.02.58zm.11-5.9l.12.57c-.33-.19-.41-.37-.12-.59zm.82.15a1 1 0 0 1-.22 0 1.06 1.06 0 0 0 0 .27c0 .17.12.34.18.51l-.07.05-.37-.19v-.74a1.46 1.46 0 0 1-.53-.84 1.3 1.3 0 0 1 .23-.46l-.16-.55a1 1 0 0 1 .42 0 .84.84 0 0 1 .18.75l.44.6c-.23.21-.22.29.15.54a1.45 1.45 0 0 1-.25.07zm.74-13.73h-1.38a1.61 1.61 0 0 1 .84-1.22l-.06.23a.27.27 0 0 1 .16.07.37.37 0 0 1 .06.26.49.49 0 0 0 0 .14.21.21 0 0 0 .14.11.29.29 0 0 1 .24.42zm10.38-1l-.08.08-1.28-1.35a2.21 2.21 0 0 1 1.36 1.31zm-4.61 3.6a1.43 1.43 0 0 1-.55-1.14l.1.27.11-.08-.22-.47a1 1 0 0 1 .56 1.45zm4.38 27.18h-.11l.24-.59c.18.27.13.44-.13.59zm1.33-27.47l-.49.12-.62-.28-.07.1.65.76-.09.08a1.3 1.3 0 0 1-.86-.78l-.08.06.65 1.38-.27-.39-.15.2-.48-1a1 1 0 0 1-.77-.58l-.23.16a.93.93 0 0 0-.15-.23c-.12-.1-.12-.47-.42-.19a.45.45 0 0 1-.18-.06l.2.58h-.05l-.66-.5v.55a2.66 2.66 0 0 1-.41 0 .44.44 0 0 1-.17-.11l.11-.14a1.84 1.84 0 0 0-1.23-.92c-.26-.05-.47-.29-.73-.36l-1.31-.23-.23-.61c-.14.35-.27.45-.56.35-.45-.16-.89-.35-1.32-.51v-1.8l-.56.27a.31.31 0 0 1-.44-.12v-.08l.22.09a8.07 8.07 0 0 0 .79-.4 7.38 7.38 0 0 1 2-.65.51.51 0 0 1 .27.05.67.67 0 0 0 .23.1 2.38 2.38 0 0 0 1 0 .32.32 0 0 1 .21 0c.35.15.68.33 1 .45l1.41.38a.55.55 0 0 1 .27.2 2.23 2.23 0 0 0 1.06.6 3 3 0 0 1 .66.55 1.49 1.49 0 0 0 .23.25c.28.14.38.06.36-.25a1 1 0 0 1 0-.22h.13v1.57a.54.54 0 0 0 .2.31c.25.19.52.36.78.53-.17.09-.17.19.09.72zm.33 22.37h-.09v-.49a.16.16 0 0 1 .13 0 .19.19 0 0 1 .08.14 3.43 3.43 0 0 1-.12.35zm.56-5h.09l.05.68h-.13a2.72 2.72 0 0 1-.24-.5.69.69 0 0 1 .23-.21zm-.06 1.44l-.1-.48.45.54zm1-5c.09.25.28.48 0 .7a.12.12 0 0 0 0 .09 5.07 5.07 0 0 1-.26 1.82.49.49 0 0 1-.16.19v-1.37l.11-.72v-2a.76.76 0 0 1 .05-.21l.11-.38a.55.55 0 0 1 .13.13 1.2 1.2 0 0 1 .11 1.32.49.49 0 0 0-.06.38z"/><path class="cls-6" d="M532.27 21.92a.5.5 0 0 1-.2-.12.5.5 0 0 0 .2.12z"/><path class="cls-6" d="M531.79 23l.48-1.12z"/><path class="cls-6" d="M517.4 15.53a.37.37 0 0 1 .06.26.37.37 0 0 0-.06-.26z"/><path class="cls-6" d="M517.24 15.46l.06-.23-.06.23z"/><path class="cls-6" d="M531.6 6.66c0 .44 0 .87-.06 1.31v1.1a2.4 2.4 0 0 1-.1.49 1.4 1.4 0 0 0-.1.25v.82a1 1 0 0 1-.9-.46 2.52 2.52 0 0 0-.25-.19.39.39 0 0 1-.19-.14 3.7 3.7 0 0 1-.38-.68 1.22 1.22 0 0 0-.87-.72l.48.62-.91-.55.24.36-.5.13.38.46-.1.11-.42-.32a.49.49 0 0 0-.22-.15.86.86 0 0 1-.79-.1c-.12-.08-.26-.13-.38-.19l-.21.32-.15-.24a1 1 0 0 1-.45.05 1 1 0 0 0-.91-.2.72.72 0 0 0-.07-.3 1.86 1.86 0 0 0-1.53-.5c-.24 0-.47.05-.43-.4-.34.14-.63.27-.92.37a.52.52 0 0 1-.3 0 2 2 0 0 1-.34-.16l.23-.36a.87.87 0 0 0-.91.54.87.87 0 0 1-.45.17l-.54.14v.09l.17.09-.23.16-.25-.19.36-.46-.08-.07a7.22 7.22 0 0 0-1.11 1.14c-.41.35-.8.72-1.21 1.09l.12.17v.07l-.43-.1v.1l.42.22v.07h-.78v.12l.45.09a2.49 2.49 0 0 0-.24.58c-.05.39.39.14.5.34l-.63.39a.51.51 0 0 0 .77-.25.33.33 0 0 1 .21-.13c.35 0 .71 0 1.06-.07l.86-.06a13.88 13.88 0 0 1 1.65-.11c1 0 1.93.17 2.89.27.35 0 .7.09 1 .14v.07l-.21.1a4.48 4.48 0 0 0 .83.14c.55 0 1.1-.14 1.63-.1a10.42 10.42 0 0 1 1.57.35l-.19.18 1.32.33-.61.12a1.86 1.86 0 0 1 .9.57l-.54.09v.07l.47.07-.22.08v.06l.4.14c0 .35-.31.3-.52.38h.12c.14 0 .36-.13.4.11a1.54 1.54 0 0 1-.08.52.76.76 0 0 0-.05.18.8.8 0 0 1-.2.81l.27.32-.25.1.6.18c.16.29.16.29.35.2a.51.51 0 0 1-.16-.23c.1-.29-.14-.28-.28-.35l-.24-.12.28-.32.09-.14.19.46c.07-.24.07-.41.11-.57a1.09 1.09 0 0 1 .18-.32l.24-.29a1.6 1.6 0 0 1 .24.3.4.4 0 0 1 0 .31 3.64 3.64 0 0 0-.11 1.17.59.59 0 0 0 .2.58.85.85 0 0 1 .11.29h-.08l-.21-.28.11 1-.21.17h.08l.1 1.15a.6.6 0 0 1 .41.79l-.31-.28a.8.8 0 0 1 0 .33c-.23.23 0 .41 0 .6a4.9 4.9 0 0 0 .2.52.5.5 0 0 0 .2.12l.2-.15-.1-.15c.3-.13.35-.31.14-.56a.65.65 0 0 1 .23-.93.75.75 0 0 1 .21-.89.53.53 0 0 1 .81-.07.75.75 0 0 1 0-.35.42.42 0 0 0-.08-.65 1.59 1.59 0 0 1-.31-.64 1 1 0 0 1 .17-.3.69.69 0 0 0 .07-.39 3 3 0 0 0-.29-.45.85.85 0 0 1-.23-.56.55.55 0 0 1 .41-.56 3.29 3.29 0 0 1-.07-.38v-1a.65.65 0 0 1 .09-.44.55.55 0 0 0 .24-.52l.13-.76a.63.63 0 0 1 .43-.58.12.12 0 0 0 0-.06l-.23-.11.15-.43.23.3a1 1 0 0 1 .08-1.05.58.58 0 0 0 .12-.71c0-.06 0-.13-.06-.19a25.18 25.18 0 0 0-2.83-2.81.42.42 0 0 0-.09.16zm-5.84 2.81a1.25 1.25 0 0 1 1 .33 1.28 1.28 0 0 0 .46.08c.16 0 .31.09.49.14-.41.45-1.35.1-1.95-.55z"/><path class="cls-6" d="M531.7 6.47l-.2-.17h-.07z"/><path class="cls-6" d="M528.48 46.54c-.44-.1-.44-.1-.44.11a1 1 0 0 1 .22.08 1.54 1.54 0 0 1-.1.39l-.13.19.48-.28a.55.55 0 0 1 0-.09c-.03-.13-.03-.26-.03-.4z"/><path class="cls-6" d="M529.86 43.83c.07-.4.15-.79.19-1.19.08-.73.15-1.46.22-2.2s.11-1.25.16-1.88a3.58 3.58 0 0 0 0-.56.94.94 0 0 0-.15-.31 1.44 1.44 0 0 0-.15.25 1.81 1.81 0 0 0-.06.31h-.3a.83.83 0 0 1 .26.26 3.52 3.52 0 0 1 0 .85c-.07.63-.18 1.25-.27 1.87 0 .28-.1.55-.16.83 0 .11-.06.22-.09.34l-.13.64h-.11v-.36a.64.64 0 0 0-.25.17c-.06.32-.09.65-.14 1l.37.15-.25.6c.39.11.44.32.25.93l-.32-.38h-.21a1.84 1.84 0 0 0 .16-1.11 3.45 3.45 0 0 0-.36 1.91l.47-.41a.32.32 0 0 1 0 .32c-.28.18-.3.33.08.52-.31.07-.34.22-.26.44l.58-.37v-.14c.2-.79.32-1.64.47-2.48zm-.54 0c.08-.2-.13-.43.15-.61v.62h-.12z"/><path class="cls-6" d="M496.22 10a1.57 1.57 0 0 0 .44.09 2.59 2.59 0 0 1 .88 0c.27.12.52-.41.73 0l.16-.05a1.25 1.25 0 0 1 .28-.08 4.3 4.3 0 0 1 .46 0l-.17.04v-.08l1.2.06h.98l.56.14.74.16a.51.51 0 0 0 .2-.09l-.28-.16v-.11l1.79.53-1.15-.62.06-.11.37.15-.18-.36a.81.81 0 0 1 .71.29 1.44 1.44 0 0 0 .41.27c.1.05.23.05.32.12l.48.38.07-.07-.51-.61.4-.12-.76-.77.24-.18-1-1.12a1 1 0 0 1-.34 0 2 2 0 0 1-.44-.25c-.35-.26-.69-.53-1-.8v.06l-.02.29a.62.62 0 0 1-.73-.13 1 1 0 0 0-1.12-.13v.26a1.41 1.41 0 0 1-.3 0c-.15 0-.28-.13-.39.09a.63.63 0 0 1-.43-.09 25.18 25.18 0 0 0-2.9 3.1.85.85 0 0 0 .24-.1z"/><path class="cls-6" d="M493.47 14a5.13 5.13 0 0 1 .36 1.09.59.59 0 0 0 .39.45 2.63 2.63 0 0 0 .28 0 4.35 4.35 0 0 0 1.66.08l.24-.35h.09c-.05.54.65.25.69.71a.59.59 0 0 1 1-.12.55.55 0 0 0 0-.26.79.79 0 0 1 .17-.89 2.61 2.61 0 0 0 .23-1.38c0-.39.11-.5.46-.36s.48.23.72.32.54.17.8.29.79.42 1.19.6c.16.07.36.07.3.31a2.16 2.16 0 0 1-.18.46.27.27 0 0 1-.16 0l-.8.11v.11l.46.16a4.17 4.17 0 0 0 .6.12 1.24 1.24 0 0 0 .33-.05c0-.08-.05-.16-.09-.23a.41.41 0 0 1 .34-.6h.24a.57.57 0 0 0-.6-.43l.1-.3a1.22 1.22 0 0 0-.26-.07.62.62 0 0 1-.67-.72c-.36.35-.56.16-.73-.17a.26.26 0 0 0-.21-.12.38.38 0 0 1-.5-.27 1.46 1.46 0 0 1-.28 0c-.11 0-.2-.08-.31-.11a3.26 3.26 0 0 1-.84-.22 2.06 2.06 0 0 0-1.49-.16 6 6 0 0 1-.76.09h-1.06a5.86 5.86 0 0 0-.82.18q-.53.84-1 1.72a.18.18 0 0 1 .11.01zm2.88-.47a1.72 1.72 0 0 1 .22.41.5.5 0 0 1-.14.22 3.44 3.44 0 0 1-.33-.34 2.35 2.35 0 0 1 .24-.27z"/><path class="cls-6" d="M493 15.73a.67.67 0 0 1-.38 0c-.11.26-.22.52-.32.78l1.14-.62c-.1-.28-.27-.22-.44-.16z"/><path class="cls-6" d="M528.4 17.24v-1.57h-.2a1 1 0 0 0 0 .22c0 .31-.08.4-.36.25a1.49 1.49 0 0 1-.23-.25 3 3 0 0 0-.66-.55 2.23 2.23 0 0 1-1.06-.6.55.55 0 0 0-.27-.2c-.47-.14-.95-.23-1.41-.38s-.69-.3-1-.45a.32.32 0 0 0-.21 0 2.38 2.38 0 0 1-1 0 .67.67 0 0 1-.23-.1.51.51 0 0 0-.27-.05 7.38 7.38 0 0 0-2 .65 8.07 8.07 0 0 1-.79.4l-.22-.09v.08a.31.31 0 0 0 .44.12l.56-.27v1.91c.43.17.87.36 1.32.51.29.1.42 0 .56-.35l.23.61c.51.08.92.12 1.31.23s.47.31.73.36a1.84 1.84 0 0 1 1.23.92l-.11.14a.44.44 0 0 0 .17.11 2.66 2.66 0 0 0 .41 0v-.65l.66.5h.05l-.2-.58a.45.45 0 0 0 .18.06c.3-.28.3.09.42.19a.93.93 0 0 1 .15.23l.23-.16a1 1 0 0 0 .77.58l.4.94.1-.21.27.39-.65-1.38.08-.06a1.3 1.3 0 0 0 .86.78l.09-.08-.65-.76.07-.1.62.28.49-.12c-.27-.53-.26-.62 0-.66-.26-.17-.53-.34-.78-.53a.54.54 0 0 1-.1-.31zm-6.71-1.57a1.24 1.24 0 0 1-.27-.25.51.51 0 0 1 .2-.18 1.17 1.17 0 0 1 .37.19 1.16 1.16 0 0 1-.3.24zm4.3 1a.45.45 0 0 1-.49.49v.57c-.31 0-.62-.11-.94-.14a.7.7 0 0 0-.26.13l-.42-.17v-.24h.43l-.46-.07.66-1.86a1.24 1.24 0 0 1 1.19.63 1.68 1.68 0 0 1 .64 1z"/><path class="cls-6" d="M501 45.39a1.69 1.69 0 0 1 .12.43l.5-.35c.29.36.44-.31.74-.1v.33a.43.43 0 0 1 .72-.09.27.27 0 0 0 .12 0h1.09a5.6 5.6 0 0 1 1 0c.62.13 1.23.31 1.84.48l1.27.38a2.42 2.42 0 0 0 .68.15c.54 0 1.08-.07 1.62-.11l.92-.07h.49c.34 0 .68.32 1 0a.43.43 0 0 1 .14 0 3 3 0 0 0 .64.07.61.61 0 0 1 .65.56.57.57 0 0 0 .62.56l-.37-.49.49-.57c.19.34.64.52.39 1l.7.43.11-.53h.06l.08.29.36-.14a.37.37 0 0 1 .22 0c.28.32.41 0 .56-.13l.34.23.09-.09-.34-.4.46-.19v.24h.08v-.46l.3.11.2-.41a2.13 2.13 0 0 1 .17-.46 1 1 0 0 1 .42-.33c.14-.05.29 0 .24-.24a.59.59 0 0 1 .07-.23l.21.07c.23-.1.42-.17.6-.27a4.43 4.43 0 0 0 .38-.24l-.06-.09-.63.05c.39-.4-.26-.48-.15-.72a.79.79 0 0 0-.35.11 3.25 3.25 0 0 0-.58.82 1.24 1.24 0 0 1-1.09.81h-.37c-.45 0-.91.06-1.36.07a11 11 0 0 0-1.78-.23l-.34.16a5.18 5.18 0 0 0-.91.12c-.22.08-.35.1-.47-.12a.52.52 0 0 1-.7 0 .21.21 0 0 0-.14 0c-.2 0-.4.08-.6.14l-.88.29v-.08a.81.81 0 0 1-.38.14c-.16-.08-.17-.11-.26 0a.52.52 0 0 0-.25-.07 3.25 3.25 0 0 1-1.35-.07c-.28 0-.55-.15-.84-.17-.52-.05-.82-.79-1.45-.45l-1.05-.38a.21.21 0 0 1-.07-.11.7.7 0 0 1-.28.09 5.34 5.34 0 0 1-1.28-.22.7.7 0 0 0-.37 0 1.62 1.62 0 0 1-1.36-.46.3.3 0 0 0-.22 0 .91.91 0 0 0-.15.1 1.53 1.53 0 0 0-.94-.23 8.44 8.44 0 0 1-2-.61 25.17 25.17 0 0 0 2 1.75l.08-.2a1.1 1.1 0 0 1 .6.13zm14.95 1.5l.16.83h-.12l-.14-.84z"/><polygon class="cls-6" points="532.27 21.92 532.27 21.92 532.26 21.92 532.27 21.93 532.27 21.93 532.27 21.92 532.27 21.92 532.27 21.92"/><path class="cls-6" d="M532 23.17a2 2 0 0 0-.14.54 11.81 11.81 0 0 1-.33 2.3 2 2 0 0 0 .34 1.11h.11v-.83s0-.56.06-.92l.37.63.19-1c-.36-.24 0-.34.08-.5a1.36 1.36 0 0 0 .09-.54c0-.53-.11-1.06-.14-1.59a.45.45 0 0 0-.36-.48l-.48 1.11z"/><path class="cls-6" d="M515.71 35.35c0-.2-.18-.12-.29-.05-.34.21-.7.42-1 .65a.47.47 0 0 0-.18.31.35.35 0 0 0 .24.17.63.63 0 0 0 .27-.12l.36.63-.18.29.07.08a1.72 1.72 0 0 1 .24-.14.34.34 0 0 1 .23 0c.19.2.36.43.54.66-.33.1-.33.1-.13.35a1.13 1.13 0 0 0 .23-.47 1.78 1.78 0 0 0-.26-.65.73.73 0 0 1 .36-1.1c.36-.16.7-.35 1-.53a7.32 7.32 0 0 0-1.08.16c-.19.01-.36.02-.42-.24z"/><path class="cls-6" d="M531.11 30.82a.55.55 0 0 0-.13-.13l-.11.38a.76.76 0 0 0-.05.21v2l-.11.72v1.37a.49.49 0 0 0 .16-.19 5.07 5.07 0 0 0 .26-1.82.12.12 0 0 1 0-.09c.33-.22.14-.45 0-.7a.49.49 0 0 1 0-.37 1.2 1.2 0 0 0-.02-1.38z"/><path class="cls-6" d="M517.21 29.53l-.44-.6a.84.84 0 0 0-.18-.75 1 1 0 0 0-.42 0l.16.55a1.3 1.3 0 0 0-.23.46 1.46 1.46 0 0 0 .53.84v.77l.37.2h.08l-.18-.51a1.06 1.06 0 0 1 0-.27 1 1 0 0 0 .22 0 1.45 1.45 0 0 0 .25-.1c-.37-.29-.37-.38-.16-.59z"/><path class="cls-6" d="M505.9 8.55l-.27-.5a4.08 4.08 0 0 0-1.85-1.3.25.25 0 0 0-.15.06l.62 1.28-.11-.4h.1l.26.59.1-.12.41.43.15-.1c-.22-.44-.72-.7-1-1.18h.24a1.31 1.31 0 0 1 .65.54 4.64 4.64 0 0 1 1.17 2 .46.46 0 0 0 .13.11 1.36 1.36 0 0 0 0-.5c-.07-.34-.27-.62-.45-.91z"/><path class="cls-6" d="M517.61 16a.21.21 0 0 1-.14-.11.49.49 0 0 1 0-.14.37.37 0 0 0-.06-.26.27.27 0 0 0-.16-.07l.06-.23a1.61 1.61 0 0 0-.84 1.22h1.38a.29.29 0 0 0-.24-.41z"/><path class="cls-6" d="M494.09 16c-.21.12-.42.25-.65.35a.76.76 0 0 0-.47.93 7.09 7.09 0 0 1 .7-.69 6.07 6.07 0 0 1 .81-.43.24.24 0 0 0-.39-.16z"/><path class="cls-6" d="M523.06 17.64l.22.47-.11.08-.1-.27a1.43 1.43 0 0 0 .55 1.14 1 1 0 0 0-.56-1.42z"/><path class="cls-6" d="M503 15.3a1.91 1.91 0 0 1-.48.12v.15c.31.05.62.11.94.15a.29.29 0 0 0 .12-.21 5.22 5.22 0 0 0-.34-.5 1 1 0 0 1-.24.29z"/><path class="cls-6" d="M528.23 15.48a2.21 2.21 0 0 0-1.36-1.27l1.28 1.35z"/><path class="cls-6" d="M506.72 33.61v.06a1.06 1.06 0 0 1 .33.39c0 .3.21.29.41.28a.23.23 0 0 0 .17-.1.27.27 0 0 0-.09-.21c-.28-.15-.54-.28-.82-.42z"/><path class="cls-6" d="M515.39 15.72a1 1 0 0 1 .17.28v-.7c0-.48 0-.48-.15-.54a.92.92 0 0 1-.05.47c-.31.22-.19.34.03.49z"/><path class="cls-6" d="M496.76 15.93a2.13 2.13 0 0 0 0 .22 1.11 1.11 0 0 1 .17.54c-.18.31.07.31.27.45a1.37 1.37 0 0 0-.44-1.21z"/><path class="cls-6" d="M502.22 12.4v-.08l-.92-.53a.88.88 0 0 0 .92.61z"/><path class="cls-6" d="M530.36 36.8l-.05-.68h-.09a.69.69 0 0 0-.23.22 2.72 2.72 0 0 0 .24.5z"/><path class="cls-6" d="M503.87 34.4l1.49.35v-.1l-1.51-.33z"/><path class="cls-6" d="M527.88 46.17h.11c.27-.15.32-.32.12-.64z"/><path class="cls-6" d="M530.06 37.05l.1.48h.4l-.45-.53z"/><path class="cls-6" d="M494.64 16.79l.44-.59a.45.45 0 0 0-.44.59z"/><path class="cls-6" d="M516.41 30.6l-.12-.6c-.29.22-.21.4.12.6z"/><path class="cls-6" d="M505.35 8.81h-.07l.49.71c.11-.39-.37-.41-.42-.71z"/><path class="cls-6" d="M529.57 40.63v.49h.09a3.43 3.43 0 0 0 .12-.39.19.19 0 0 0-.08-.14.16.16 0 0 0-.13.04z"/><path class="cls-6" d="M516.06 28.09a.21.21 0 0 0 .15-.12 1.23 1.23 0 0 0-.21-.27.64.64 0 0 0-.13.25.24.24 0 0 0 .19.14z"/><path class="cls-6" d="M516.58 27.22v-.07a.84.84 0 0 0-.25-.15.69.69 0 0 0-.27.07l.15.15h.34z"/><path class="cls-6" d="M526.78 9.8a1.25 1.25 0 0 0-1-.33c.6.64 1.53 1 2 .55l-.49-.14a1.28 1.28 0 0 1-.51-.08z"/><path class="cls-6" d="M529.47 43.22c-.28.18-.07.41-.15.61h.12z"/><path class="cls-6" d="M496.56 14a1.72 1.72 0 0 0-.22-.41 2.35 2.35 0 0 0-.26.3 3.44 3.44 0 0 0 .33.34.5.5 0 0 0 .15-.23z"/><path class="cls-6" d="M524.47 15.35l-.66 1.86.46.07h-.43v.32l.42.17a.7.7 0 0 1 .26-.13c.31 0 .63.09.94.14v-.57a.45.45 0 0 0 .49-.49l.31.23a1.68 1.68 0 0 0-.64-1 1.24 1.24 0 0 0-1.15-.6z"/><path class="cls-6" d="M521.42 15.42a1.24 1.24 0 0 0 .27.25 1.16 1.16 0 0 0 .3-.24 1.17 1.17 0 0 0-.37-.19.51.51 0 0 0-.2.18z"/><path class="cls-6" d="M516.07 47.72l-.16-.83h-.11l.14.84z"/><path class="cls-5" d="M463.19 0h-.22l.2.08z"/><path class="cls-5" d="M476 47.49v-.34a9.37 9.37 0 0 0-.09-1 5.18 5.18 0 0 0-.48-1.83 1 1 0 0 1 0-.37c0-.16 0-.31-.07-.46h-.11l-.19.72c.19.13.25.29.07.41a2.64 2.64 0 0 1 0 .7 1.64 1.64 0 0 0 .19 1.18 4 4 0 0 0-.07.58c0 .42 0 .84.07 1.25h-.31v.17l1-.5a2 2 0 0 0-.01-.5z"/><path class="cls-5" d="M473.22 49.3a.53.53 0 0 0 0-.25.51.51 0 0 0-.11-.23 1.69 1.69 0 0 1-.44-1.45l.49.26-.18-.28.25-.18v.28a1.15 1.15 0 0 0 .38-.12c.09-.07.08-.19-.09-.2a.38.38 0 0 1 0-.14.38.38 0 0 0 0-.18 2.7 2.7 0 0 0-.73-.37c-.37-.08-.38 0-.37-.44h-.42a.17.17 0 0 1 0-.08c.28-.19.19-.36 0-.53a2.13 2.13 0 0 1-.32-.27 2.11 2.11 0 0 1-.2-.35.62.62 0 0 0-.09-1.06 2.5 2.5 0 0 1-.45-.44.87.87 0 0 0-.26-.3c-.42 0-.41-.27-.47-.53a.88.88 0 0 1 .08-.79.73.73 0 0 0 .16-.36.55.55 0 0 0-.15-.34c-.09-.11-.27-.17 0-.32a.18.18 0 0 0 0-.13v-1a1.4 1.4 0 0 0-.42-.9 4.2 4.2 0 0 1-.34-.43l.35-.16-.8-.65v-.08l.47.26s.55.28.83.39a7.66 7.66 0 0 0 1 .3 2.19 2.19 0 0 0 1.57-.27 11.54 11.54 0 0 0 1.28-.84.48.48 0 0 0 .13-.38c0-.36-.14-.71-.22-1.07a1.51 1.51 0 0 1 0-.64 1.69 1.69 0 0 0-.15-.87 6.56 6.56 0 0 1-.34-2.4c0-.44-.11-.88-.15-1.33a.62.62 0 0 1 .12-.27l.33.53c0 .22.07.42.09.62v1.1400000000000001l.78.17-.18.49.35-.11.25 1a.29.29 0 0 1-.33-.32 2.92 2.92 0 0 0-.08-.45c-.4.09-.4.09-.43-.21h-.34l.35.57.22-.07a.79.79 0 0 1 0 .33c-.13.29.07.4.25.54l.37.32.17-.06c.11.27.11.27-.25.46.25.16.27.32 0 .54a.7.7 0 0 0 .17.42 5 5 0 0 0 .42.39.55.55 0 0 1 0 .23l-.25-.17.06.73h.11a1.74 1.74 0 0 0 .65-1.22l.23.25c0 .21-.35.4 0 .63l-.2.13a.53.53 0 0 0-.19.08.2.2 0 0 0 0 .19.33.33 0 0 1 0 .57l.34 2-.2-.22h-.07l.27.61a.92.92 0 0 0 .2-1h.28l.18.81-.33.12.23 1.15h.13l-.2.12c0 .23.07.45.1.66l.14.79a.56.56 0 0 0 .13.17l.13-.07.1.77h-.09l.27.21-.18.25a.69.69 0 0 1 .22.25.91.91 0 0 0 .27.69.15.15 0 0 1 0 .11 2.27 2.27 0 0 1 .55.09.33.33 0 0 1 .05.32 1.39 1.39 0 0 1-.39.27v.58l.2-.19a1 1 0 0 1 .07.23 25.42 25.42 0 0 0 7.59-34.39l-.23.1v-.31l-.34.24-.16-.27-.09.14.09-.15.1-.15a.5.5 0 0 0 .48.07 25.54 25.54 0 0 0-5.12-5.88l-.39.6-.33-.31a1.43 1.43 0 0 1-.71 1.25h.27a.22.22 0 0 1 0 .08c-.29.3-.6.59-.87.91a.5.5 0 0 0 .05.42l-.22.27.3.1a4 4 0 0 0-.37 1 1.34 1.34 0 0 1-.38.94c.2.27-.2.78.34.87l-.59.87.08.07h.24l-.43.71.11.47h-.12l-.49.62v.05l.32-.26a.74.74 0 0 0 0 .59.36.36 0 0 1-.14.19c-.28 0-.26.19-.28.35a8.51 8.51 0 0 1-.06.86c-.08.39-.22.76-.34 1.15l-.34 1.11h.39l-.42.62c.32.26-.24.49-.11.79l-.11-.32-.4 1h.4l-.19.32c.34 0 .2.23.16.38a.46.46 0 0 1 .13.7l-.24-.09-.27-.66h-.07l.25.89-.47.18v-.32l-.07-.05a2 2 0 0 0-.18.24 3.93 3.93 0 0 0-.16.38l-.19-.08c-.16-.14-.26-.11-.32.09s-.12.32-.38.14a.71.71 0 0 0-.29 0 .93.93 0 0 0 0 .23c0 .2.09.4.11.6a.84.84 0 0 1-.08.28l.13.44a.29.29 0 0 1-.06.2.19.19 0 0 1-.14 0 1 1 0 0 1 0-.2v-.19a.54.54 0 0 0-.17.15c0 .43.08.86.12 1.29h.08l.09-.2h.1l-.44 1.23h-.09a2.7 2.7 0 0 1 0-.49c.07-.26.13-.49-.23-.55a.29.29 0 0 1 0-.11.56.56 0 0 0-.13-.73.68.68 0 0 1 0-.4 1.89 1.89 0 0 1 0-.28.51.51 0 0 0 .2 0 .32.32 0 0 0 .08-.15c-.34 0-.26-.32-.37-.49a6.43 6.43 0 0 1-.37-.75.41.41 0 0 1-.21 0 .77.77 0 0 1-.41-.62h-.33a.81.81 0 0 0-.11-1 .45.45 0 0 1 0-.26l.2-1.14a.41.41 0 0 0-.12-.14l-.25.49h-.07l.09-.27c.12-.37.26-.73.36-1.11a2.36 2.36 0 0 0-.07-.42c0-.24.05-.48.07-.67a5.23 5.23 0 0 1-.54.13.22.22 0 0 1-.24-.33.92.92 0 0 1-.05-.9l-.16-.27a1 1 0 0 1-.15.31.93.93 0 0 1-.3.12.93.93 0 0 0-.21.09l-.35.3.16-.9-.58.36c.08-.28.53-.29.41-.68-.3.08-.38.57-.8.36.23-.3.07-.56-.24-.8h-.16c.13-.7-.48-1-.71-1.56l.26-.17c-.15-.4-.44 0-.73-.14l.4-.26c-.16-.08-.16-.08-.71.17l.29-.33a3.11 3.11 0 0 0-.28-.23 1.24 1.24 0 0 0-.51-.28.41.41 0 0 0-.51.35l-.57-.35v.64h-.07l-.21-.85-.43.36a.6.6 0 0 0-.17.19.94.94 0 0 1-.7.66c-.18 0-.19.13-.08.28a1.77 1.77 0 0 1 .15.34h-.09a1 1 0 0 0-.43-.27 1.16 1.16 0 0 0-.37.42 1.26 1.26 0 0 0-.82 1.07l-.12-.06.17-.75h-.11l-.37 1.27c-.1-.2-.21-.4-.3-.62a.25.25 0 0 1 .05-.2 1.17 1.17 0 0 0 .11-1.19.43.43 0 0 1 0-.29 2.49 2.49 0 0 1 .34-.58c.17-.2.21-.33 0-.51a3 3 0 0 1-.42-.46.46.46 0 0 0-.12-.6.87.87 0 0 1 0-.4.38.38 0 0 1 0-.58.48.48 0 0 0-.07-.37c-.12-.22-.18-.38.1-.55a2.45 2.45 0 0 0 .55-.53.32.32 0 0 0 0-.48.24.24 0 0 1 0-.42.84.84 0 0 1-.18-.37.24.24 0 0 0-.12-.3l-.11.17h-.08c-.07-.36-.15-.71-.19-1.07a.47.47 0 0 1 .16-.24.61.61 0 0 1 .16-.11 1.78 1.78 0 0 1 .39-.2c.18 0 .41 0 .36-.31a.24.24 0 0 1 .08-.12l.23-.33a1.1 1.1 0 0 0 1-.34 4.69 4.69 0 0 0-.44-.26.64.64 0 0 1-.3-.3.48.48 0 0 1 0-.19.25.25 0 0 1 0-.16l-.34-.41c.27-.15.52-.28.75-.44a.4.4 0 0 0-.08-.75.47.47 0 0 1-.4-.53h-.48l.06-.08c-.1-.15-.21-.3-.29-.46a1.22 1.22 0 0 1 .28-1 .31.31 0 0 0 .09-.54 25.42 25.42 0 1 0 10.37 49.27zm12.26-36.52l1.1.12v.11l-1.11-.15zm-7 27.51l-.06.6h-.11a.59.59 0 0 1 .14-.6zm-3.69-8.71c-.11.18.06.49-.32.51l.11-.22h-.26c-.09-.11.18-.31.44-.29zm-.66-2.58l.26.48c-.47.11-.28-.25-.37-.4zm-.13 1.07c.1.25.53 0 .56.37a.6.6 0 0 0-.29-.08c-.38.17-.35-.03-.27-.29zm-.42-2.26l.3.18-.21.31-.32-.22zm-2.13.72c-.19.27-.19.27-.59-.11zm-2.22-.15l-1 .09a.76.76 0 0 1 .97-.08zm-2.87-13.29l.4.33-.07.09-.42-.31zm0 14.74h-.08l-.56-1a.28.28 0 0 0 0-.06 2.34 2.34 0 0 1-.5-1.89c0-.66.15-1.31.23-2a1.8 1.8 0 0 1 .09-.3 3 3 0 0 1 0 1.68 2.76 2.76 0 0 0 .13 1.94c.2.38.41.75.6 1.13a2.63 2.63 0 0 1 .02.52zm-.34-7.22l-.3 1.56h-.13l.41-3.17a2.77 2.77 0 0 1-.06 1.63zm-2-8a7.18 7.18 0 0 1 1.98.39l-2.08-.17zm-3 3.94a6.34 6.34 0 0 0 .7-.64l-.31-.07c.08-.37.35-.32.62-.27.12-.25.21-.52.34-.76s.12-.58.24-.87l-.33 2.06a.26.26 0 0 0-.38.18c-.08.36-.17.72-.26 1.09.32-.05.24.65.72.4v.4h-.07l-.2.37.26.05-.14.18v.48l-.47-.06a1 1 0 0 1-.3-.11 5.34 5.34 0 0 1-.71-.61.5.5 0 0 1 .11-.26 2 2 0 0 1 .37-.25l-.23-.13.19-.25-.37.05c-.06-.19-.14-.39-.19-.59a.37.37 0 0 1 .28-.39zm-.44 3.24c-.35-.14.1-.37-.14-.58.28 0 .48 0 .43.26a.53.53 0 0 1-.43.32zm3.84 6.78l-.49.45.12.23a.93.93 0 0 0-.23.09.73.73 0 0 0-.29.32 1.06 1.06 0 0 0-.08.22 7.84 7.84 0 0 1-.74-.4.39.39 0 0 1-.09-.31 6.47 6.47 0 0 1 .14-.66h.08a2.68 2.68 0 0 1 .23-.46 1 1 0 0 0 0-1l.31-.42c-.09-.29-.39-.11-.59-.21.28.43-.33.92-.87 1a3 3 0 0 1-.32-.41 2.42 2.42 0 0 1-.23-.61.61.61 0 0 1 .36-.14l.37-.69a.71.71 0 0 0 0-.83 2.87 2.87 0 0 0-.76-.77.54.54 0 0 1-.07-.27l-.38-.06.2-.69-.19-.06v-.07a1.25 1.25 0 0 1 .52-.09c.31.09.35.09.35-.23v-.12a1.26 1.26 0 0 0 .89-1 4.84 4.84 0 0 0 0 .73 7.49 7.49 0 0 0 .29 1.35c.22.61.52 1.2.8 1.79s.67 1.36 1 2.05a9 9 0 0 1 .31.93 7.4 7.4 0 0 1 .45 1.86c.12.33.19.68.26 1a6.63 6.63 0 0 0-.94-.29 9.42 9.42 0 0 0-1.13-.05l.1-1a.73.73 0 0 0 .85-.36.27.27 0 0 0 0-.18c-.21-.21-.28-.4-.37-.65z"/><path class="cls-6" d="M462.94 3.84l.34.41z"/><path class="cls-6" d="M472.66 23a.41.41 0 0 0 .21 0 6.43 6.43 0 0 0 .37.75 6.42 6.42 0 0 1-.37-.75.41.41 0 0 1-.21 0z"/><path class="cls-6" d="M463.31 29.88a1.06 1.06 0 0 1 .08-.22 1.06 1.06 0 0 0-.08.22z"/><path class="cls-6" d="M463.29 4.59a.48.48 0 0 1 0-.19.48.48 0 0 0 0 .19z"/><path class="cls-6" d="M478.34 46.52v-.58a1.39 1.39 0 0 0 .39-.27.33.33 0 0 0-.05-.32 2.27 2.27 0 0 0-.55-.09.15.15 0 0 0 0-.11.91.91 0 0 1-.27-.69.69.69 0 0 0-.22-.25l.18-.25-.25-.11h.09l-.1-.77-.13.07a.56.56 0 0 1-.13-.17c-.06-.26-.1-.53-.14-.79l-.1-.66.2-.12h-.13l-.23-1.15.33-.12-.23-.88h-.17a.92.92 0 0 1-.2 1l-.27-.61h.07l.2.22-.34-2a.33.33 0 0 0 0-.57.2.2 0 0 1 0-.19.53.53 0 0 1 .19-.08l.2-.13c-.31-.23 0-.42 0-.63l-.23-.25a1.74 1.74 0 0 1-.65 1.22h-.11l-.06-.73.25.17a.55.55 0 0 0 0-.23 5 5 0 0 1-.42-.39.7.7 0 0 1-.17-.42c.22-.21.2-.37 0-.54.37-.2.37-.2.25-.46l-.17.06c-.14-.13-.25-.23-.37-.32s-.38-.25-.25-.54a.79.79 0 0 0 0-.33l-.22.07-.35-.57h.34c0 .3 0 .3.43.21a2.92 2.92 0 0 1 .08.45.29.29 0 0 0 .33.32l-.36-.99h-.37l.18-.49-.78-.17v-1.1400000000000001l-.09-.62-.33-.53a.62.62 0 0 0-.12.27l.15 1.33a6.56 6.56 0 0 0 .34 2.4 1.69 1.69 0 0 1 .15.87 1.51 1.51 0 0 0 0 .64c.08.35.17.71.22 1.07a.48.48 0 0 1-.13.38 11.54 11.54 0 0 1-1.28.84 2.19 2.19 0 0 1-1.57.27 7.66 7.66 0 0 1-1-.3c-.29-.11-.56-.25-.83-.39l-.47-.26v.08l.8.65-.35.16a4.2 4.2 0 0 0 .34.43 1.4 1.4 0 0 1 .42.9v1a.18.18 0 0 1 0 .13c-.23.15-.05.21 0 .32a.55.55 0 0 1 .15.34.73.73 0 0 1-.16.36.88.88 0 0 0-.08.79c.07.26.05.56.47.53a.87.87 0 0 1 .26.3 2.5 2.5 0 0 0 .45.44.62.62 0 0 1 .09 1.06 2.11 2.11 0 0 0 .2.35 2.13 2.13 0 0 0 .32.27c.21.17.3.34 0 .53a.17.17 0 0 0 0 .08h.28c0 .4 0 .36.37.44a2.7 2.7 0 0 1 .73.37.38.38 0 0 1 0 .18.38.38 0 0 0 0 .14c.17 0 .18.12.09.2a1.15 1.15 0 0 1-.38.12v-.28l-.25.18.18.28-.49-.26a1.69 1.69 0 0 0 .44 1.45.51.51 0 0 1 .11.23.53.53 0 0 1 0 .25c.64-.24 1.27-.5 1.89-.79v-.17h.31c0-.41-.06-.83-.07-1.25a4 4 0 0 1 .07-.58 1.64 1.64 0 0 1-.19-1.18 2.64 2.64 0 0 0 0-.7c.18-.12.11-.28-.07-.41l.19-.72h.11l.07.46a1 1 0 0 0 0 .37 5.18 5.18 0 0 1 .48 1.83 9.37 9.37 0 0 1 .09 1v.34h.06a2 2 0 0 1 .18.51 25.4 25.4 0 0 0 2.47-1.45 1 1 0 0 0-.07-.23z"/><path class="cls-6" d="M462.77.6a1.22 1.22 0 0 0-.28 1c.08.16.19.31.29.46l-.06.08h.48a.47.47 0 0 0 .4.53.4.4 0 0 1 .08.75c-.23.16-.48.28-.75.44l.34.41a.25.25 0 0 0 0 .16.48.48 0 0 0 0 .19.64.64 0 0 0 .3.3 4.69 4.69 0 0 1 .44.26 1.1 1.1 0 0 1-1 .34l-.27.32a.24.24 0 0 0-.08.12c.06.32-.18.27-.36.31a1.78 1.78 0 0 0-.39.2.61.61 0 0 0-.16.11.47.47 0 0 0-.16.24c0 .36.12.72.19 1.07h.08l.14-.19a.24.24 0 0 1 .17.34.84.84 0 0 0 .27.32.24.24 0 0 0 0 .42.32.32 0 0 1 0 .48 2.45 2.45 0 0 1-.55.53c-.28.17-.22.33-.1.55a.48.48 0 0 1 .07.37.38.38 0 0 0 0 .58.87.87 0 0 0 0 .4.46.46 0 0 1 .12.6 3 3 0 0 0 .42.46c.24.17.2.31 0 .51a2.49 2.49 0 0 0-.34.58.43.43 0 0 0 0 .29 1.17 1.17 0 0 1-.11 1.19.25.25 0 0 0-.05.2l.3.62.37-1.27h.11l-.17.75.12.06a1.26 1.26 0 0 1 .82-1.07 1.16 1.16 0 0 1 .37-.42 1 1 0 0 1 .43.27h.09a1.77 1.77 0 0 0-.15-.34c-.1-.14-.1-.24.08-.28a.94.94 0 0 0 .7-.66.6.6 0 0 1 .03-.18l.37-.3.21.85h.07v-.64l.57.35a.41.41 0 0 1 .51-.35 1.24 1.24 0 0 1 .51.28 3.11 3.11 0 0 1 .28.23l-.29.33c.56-.25.56-.25.71-.17l-.4.26c.29.11.58-.26.73.14l-.26.17c.23.55.84.86.71 1.56h.16c.31.25.47.5.24.8.43.21.5-.28.8-.36.13.39-.32.4-.41.68l.58-.36-.16.9.35-.3a.93.93 0 0 1 .21-.09.93.93 0 0 0 .3-.12 1 1 0 0 0 .15-.31l.15.11a.92.92 0 0 0 .05.9.22.22 0 0 0 .24.33 5.23 5.23 0 0 0 .54-.13l-.07.67a2.36 2.36 0 0 1 .07.42c-.1.38-.24.74-.36 1.11l-.09.27h.07l.25-.49a.41.41 0 0 1 .12.14c-.06.38-.13.76-.2 1.14a.45.45 0 0 0 0 .26.81.81 0 0 1 .11 1h.33a.77.77 0 0 0 .41.62.41.41 0 0 0 .21 0 6.42 6.42 0 0 0 .37.75c.11.17 0 .5.37.49a.32.32 0 0 1-.08.15.51.51 0 0 1-.2 0 1.89 1.89 0 0 0 0 .28.68.68 0 0 0 0 .4.56.56 0 0 1 .13.73.29.29 0 0 0 0 .11c.37.05.3.29.23.55a2.7 2.7 0 0 0 0 .49h.09l.44-1.23h-.1l-.09.2h-.11c0-.43-.09-.86-.12-1.29a.54.54 0 0 1 .17-.15v.19a1 1 0 0 0 0 .2.19.19 0 0 0 .14 0 .29.29 0 0 0 .06-.2c0-.16-.09-.32-.13-.44a.84.84 0 0 0 .08-.28c0-.2-.08-.4-.11-.6a.93.93 0 0 1 0-.23.71.71 0 0 1 .29 0c.26.18.29.17.38-.14s.16-.23.32-.09l.26.21a3.93 3.93 0 0 1 .16-.38 2 2 0 0 1 .18-.24l.07.05v.32l.47-.18-.25-.89h.07l.27.66.24.09a.46.46 0 0 0-.13-.7c0-.16.18-.36-.16-.38l.19-.32h-.4l.4-1 .21.19c-.13-.3.43-.53.11-.79l.42-.62h-.39l.38-1.06c.12-.38.26-.76.34-1.15a8.51 8.51 0 0 0 .06-.86c0-.16 0-.37.28-.35a.36.36 0 0 0 .14-.19.74.74 0 0 1 0-.59l-.32.26v-.05l.49-.62h.12l-.17-.49.36-.71h-.3l.57-.84c-.54-.09-.14-.6-.34-.87a1.34 1.34 0 0 0 .38-.94 4 4 0 0 1 .37-1l-.28-.06.2-.29a.5.5 0 0 1-.05-.42c.27-.32.58-.61.87-.91a.22.22 0 0 0 0-.08h-.27a1.43 1.43 0 0 0 .71-1.25l.33.31.41-.65a25.31 25.31 0 0 0-16.4-6h-1.31v.09l-.19-.04h-.1a.31.31 0 0 1-.13.55zm.23 9.58l.11-.06.21.26-.36.29zm-.11 3.88l-.08-.06.45-.58.08.07z"/><path class="cls-6" d="M485.33 12.08l.09-.14z"/><path class="cls-6" d="M485.52 11.79l-.1.15.16.27.34-.24v.31l.23-.1-.2-.32a.5.5 0 0 1-.43-.07z"/><path class="cls-6" d="M463.64 29.72l-.1 1a9.42 9.42 0 0 1 1.13.05 6.63 6.63 0 0 1 .94.29c-.07-.27-.14-.62-.26-1a7.4 7.4 0 0 0-.45-1.86 9 9 0 0 0-.31-.93c-.31-.69-.66-1.36-1-2.05s-.58-1.17-.8-1.79a7.49 7.49 0 0 1-.29-1.35 4.84 4.84 0 0 1 0-.73 1.26 1.26 0 0 1-.89 1v.12c0 .32 0 .32-.35.23a1.25 1.25 0 0 0-.52.09v.06l.19.06-.2.69.38.06a.54.54 0 0 0 .07.27 2.87 2.87 0 0 1 .76.77.71.71 0 0 1 0 .83c-.11.23-.24.46-.37.69a.61.61 0 0 0-.36.14 2.42 2.42 0 0 0 .23.61 3 3 0 0 0 .32.41c.54-.05 1.15-.54.87-1 .2.11.49-.08.59.21l-.31.42a1 1 0 0 1 0 1 2.68 2.68 0 0 0-.23.46h-.08a6.47 6.47 0 0 0-.14.66.39.39 0 0 0 .09.31 7.84 7.84 0 0 0 .74.4 1.06 1.06 0 0 1 .08-.22.73.73 0 0 1 .29-.32.93.93 0 0 1 .23-.09l-.1-.21.49-.45c.09.25.16.43.21.62a.27.27 0 0 1 0 .18.73.73 0 0 1-.85.37zm1.07-1.14l.26.6c-.39-.18-.43-.28-.26-.6z"/><path class="cls-6" d="M461.24 19.5l-.19.25.23.13a2 2 0 0 0-.37.25.5.5 0 0 0-.11.26 5.34 5.34 0 0 0 .71.61 1 1 0 0 0 .3.11l.47.06v-.48l.14-.18-.26-.05.2-.37h.07v-.4c-.48.24-.4-.46-.72-.4.09-.37.18-.73.26-1.09a.26.26 0 0 1 .38-.18l.19-2.11c-.12.28-.1.62-.24.87s-.21.5-.34.76c-.27 0-.54-.1-.62.27l.31.07a6.34 6.34 0 0 1-.7.64.37.37 0 0 0-.2.42c0 .2.13.39.19.59z"/><path class="cls-6" d="M465.42 26.37a3 3 0 0 0 0-1.68 1.8 1.8 0 0 0-.09.3c-.09.65-.2 1.31-.23 2a2.34 2.34 0 0 0 .5 1.89.28.28 0 0 1 0 .06l.56 1h.08a2.63 2.63 0 0 0-.13-.42c-.19-.38-.4-.75-.6-1.13a2.76 2.76 0 0 1-.09-2.02z"/><path class="cls-6" d="M465.64 24.19c.1-.52.21-1 .3-1.56a2.77 2.77 0 0 0 .06-1.63l-.52 3.15z"/><path class="cls-6" d="M463.92 14.61v.2l2.08.19a7.18 7.18 0 0 0-2.08-.39z"/><path class="cls-6" d="M460.31 21.2c.23.21-.22.44.14.58a.53.53 0 0 0 .3-.32c.04-.22-.16-.25-.44-.26z"/><path class="cls-6" d="M468.17 28.49l1-.09a.76.76 0 0 0-1 .09z"/><path class="cls-6" d="M474.29 31.92h.26l-.11.22c.37 0 .21-.33.32-.51-.26-.07-.53.13-.47.29z"/><path class="cls-6" d="M473.85 28l-.3-.18-.23.27.32.22z"/><path class="cls-6" d="M474.24 30.37a.6.6 0 0 1 .29.08c0-.4-.45-.13-.56-.37-.05.25-.08.45.27.29z"/><path class="cls-6" d="M471.42 28.54l-.59-.11c.4.38.4.38.59.11z"/><path class="cls-6" d="M474.39 29.46l-.26-.46-.11.07c.09.14-.1.5.37.39z"/><path class="cls-6" d="M486.57 12.9l-1.1-.12v.08l1.08.14z"/><path class="cls-6" d="M478.39 40.89l.06-.6a.59.59 0 0 0-.17.59h.11z"/><path class="cls-6" d="M466.73 15.44l-.4-.33-.08.11.42.31z"/><path class="cls-6" d="M463.12 10.12l-.11.06v.49l.36-.29z"/><path class="cls-6" d="M462.81 14l.09.07.45-.58-.08-.07z"/><path class="cls-6" d="M465 29.18l-.26-.6c-.2.32-.16.42.26.6z"/><circle class="cls-7" cx="462.57" cy="26.82" r="25.04"/><circle class="cls-8" cx="513.93" cy="26.82" r="25.04"/></g></svg>