<svg xmlns="http://www.w3.org/2000/svg" viewBox="0 0 388.92 243.64"><defs><style>.cls-1{fill:#fff;}</style></defs><title>Untitled-1</title><path class="cls-1" d="M130.37 26.44l-15.37 11.62c-8.43-11.62-24.59-18.6-36.61-18.6-13.25 0-25 4.65-32.76 12.5-9.25 9.34-13.73 21.17-13.73 34.87-.03 13.53 5.1 23.83 14.21 33.17s19.59 12.79 32.83 12.79a42 42 0 0 0 17.68-4.21 50.32 50.32 0 0 0 8.31-4.51c2.87-1.89 7.45-7.79 10.63-10.46l15.11 11.62c-18 22.66-39.48 26.73-51.72 26.73-18.42 0-34-6-47.07-18.89s-19.6-27.81-19.6-46.13c0-16.42 5-31.14 15.81-44 13.36-15.74 29.64-22.94 50.85-22.94 11.58 0 34 4.36 51.43 26.44z"/><path class="cls-1" d="M255.18 25.57l-18.6 6.68c-1.74-5.23-6-12.49-17.6-12.79-5.4-.14-8.64 1.88-12.2 4.94s-6.41 8.52-6.1 13.08c.58 8.72 4.81 17.75 19.05 18.89 32.83 2.62 37.19 28.34 37.19 37.19 0 11.87-3.69 20.43-12.78 28.48-7.56 6.68-14.64 9.59-26.44 9.59-20.34 0-31.17-16.62-34.37-25.63l18.38-6.5c.58 3.49 7.57 13.82 17.45 12.95 6-.53 18.37-4 18.05-17.95-.29-12.79-9.34-19-19.22-19.24-16.56-.49-36.32-10.46-36.9-36.9-.21-9.67 3.64-21.1 11-27.6a39.78 39.78 0 0 1 27.36-10.47 38.35 38.35 0 0 1 35.74 25.28z"/><path class="cls-1" d="M.39 216.14q4.43 0 6.11-2.06t2.93-9.15l5.47-31.14q.36-2.3.54-3.74a23.16 23.16 0 0 0 .18-2.88q0-2.78-1.25-3.64t-4.5-.87l.29-2h20q10 0 14.81 5.65t4.84 15.33a83.49 83.49 0 0 1-1.44 11.93q-1.37 8.43-8.83 16.53t-19.41 8.05h-20.13zm15.43-12.65a39.61 39.61 0 0 0-.86 6.8c0 1.66.4 2.8 1.2 3.4s2.22.91 4.26.91q9.78 0 14.71-7.28t6-13.61q1.1-6.33 1.39-9a44.79 44.79 0 0 0 .29-4.84q0-7.19-3-11.45t-10.35-4.27h-6.8z"/><path class="cls-1" d="M62.14 215.95a10 10 0 0 0 4.29-1.29 19 19 0 0 0 4.48-3.11l.86 1.92a21.43 21.43 0 0 1-5.77 4.53 13.21 13.21 0 0 1-6.32 1.77 9.24 9.24 0 0 1-7.79-3.77 15.61 15.61 0 0 1-2.83-9.68v-1.72a48.25 48.25 0 0 1 .91-5.29q.91-4.53 5.85-9.59t10.11-5.06a7.27 7.27 0 0 1 5.22 1.86 6.46 6.46 0 0 1 2 4.92 27.45 27.45 0 0 1-.48 3q-.48 2.53-5.1 6.35t-13 5.54c0 3.06.61 5.41 1.83 7.07s3.16 2.49 5.8 2.49zm6-22.94a5 5 0 0 0 .1-1.14q0-3.33-3-3.33-3.43 0-6.31 3.71a23 23 0 0 0-4.06 10l-.29 1.52a21.75 21.75 0 0 0 9.42-4.48 11.87 11.87 0 0 0 4.14-6.29z"/><path class="cls-1" d="M86.06 184.7q-.19 1.24-2.68 9.32a106.56 106.56 0 0 0-3.07 11.42 32.78 32.78 0 0 0-.57 4.59 7.3 7.3 0 0 0 1.26 4.63 4 4 0 0 0 3.26 1.58q3.45 0 6.66-3.92a18.81 18.81 0 0 0 4.08-8.69 44.21 44.21 0 0 0 .86-7 13.3 13.3 0 0 0-1.53-6.45q-1.53-2.82-1.44-3.68a2.16 2.16 0 0 1 2.4-1.82c1 0 1.92.73 2.68 2.2s1.15 3.76 1.15 6.88a60.85 60.85 0 0 1-1.12 9.54 23.7 23.7 0 0 1-5.37 11.32q-4.31 5.16-9.39 5.16-4.79 0-6.9-2.35a9 9 0 0 1-2.11-6.28 27.09 27.09 0 0 1 .38-4.07q.38-2.45 3.54-9.44t3.26-7.38q-1.41-.66-2.83-1.26a8.13 8.13 0 0 0-3.26-.62 4 4 0 0 0-1.92.69 10.75 10.75 0 0 0-1.92 1.42v-2.3a11.06 11.06 0 0 1 3.11-2.23 7.36 7.36 0 0 1 3.11-.93 17.12 17.12 0 0 1 2.78.24c1 .16 1.5.24 1.63.24a4.45 4.45 0 0 0 2.3-.77h1.63z"/><path class="cls-1" d="M154.57 217.1v-2.92a3.6 3.6 0 0 0-.91-2.54 27.27 27.27 0 0 1-7.24 6 15.63 15.63 0 0 1-7.62 2.16q-7.67 0-12.46-6.61t-4.79-16.77a78.74 78.74 0 0 1 1.39-11.45q1.39-8.1 9.44-17t17.11-8.97q7.57 0 12 8.15a7.16 7.16 0 0 0 1.44-2 30.84 30.84 0 0 0 1.53-3.45h1.92l-3.74 21.08h-2q0-9.49-2.92-14.76a9.37 9.37 0 0 0-8.67-5.27q-7.19 0-12.46 8.19a42.91 42.91 0 0 0-6.59 15.53 70.16 70.16 0 0 0-1.29 11.36 27.93 27.93 0 0 0 2.68 12.94 8.75 8.75 0 0 0 8.24 5.17q5.84 0 10.78-5.32t7.9-14.62h2l-3.74 21.08h-2z"/><path class="cls-1" d="M173.55 219.78a10.46 10.46 0 0 1-8.53-4 15.41 15.41 0 0 1-3.26-10 42.85 42.85 0 0 1 .81-6.16q.81-4.54 6-9.7t11.21-5.16a10.37 10.37 0 0 1 8.34 3.92 15 15 0 0 1 3.26 9.94 43.69 43.69 0 0 1-.81 6.31q-.82 4.59-5.89 9.75t-11.13 5.1zm5.75-32.1q-4.12 0-7 4.06a21.83 21.83 0 0 0-3.74 8.69 42.22 42.22 0 0 0-.86 7.21 12.61 12.61 0 0 0 1.53 6.74 5.25 5.25 0 0 0 4.79 2.43q4.12 0 6.95-4.06a22.17 22.17 0 0 0 3.69-8.74 42.82 42.82 0 0 0 .86-7.16 12.59 12.59 0 0 0-1.53-6.73 5.16 5.16 0 0 0-4.69-2.44z"/><path class="cls-1" d="M192.81 218.15l4.79-25.78v-2q0-2-1.24-2a4 4 0 0 0-2 .64 8.05 8.05 0 0 0-1.87 1.47v-2.3q3.06-3.16 6.23-3.16 4.31 0 4.31 4.89v1.73l-.38.86a18.59 18.59 0 0 1 5.08-5.63 10.28 10.28 0 0 1 6-2.13 6.3 6.3 0 0 1 5.51 2.48 11.58 11.58 0 0 1 1.77 6.85 28.83 28.83 0 0 1-.5 4.85l-2.3 13.08v1.91c0 1.34.41 2 1.25 2a3.79 3.79 0 0 0 1.87-.67 13.39 13.39 0 0 0 2-1.44v2.2q-3.35 3.35-6.32 3.35a3.78 3.78 0 0 1-3.16-1.34 5.74 5.74 0 0 1-1.05-3.64v-1.73l2.4-13.32a29.26 29.26 0 0 0 .48-4.65 6.8 6.8 0 0 0-1-4.13 4 4 0 0 0-3.41-1.38q-2.66 0-5.88 4a22.66 22.66 0 0 0-4.36 10.73l-2.74 14.23z"/><path class="cls-1" d="M223.86 189.59l.67-3.35h6.19l1.63-9.48q1.44-8.14 6-12.94t9.41-4.79a8.37 8.37 0 0 1 6.33 2.3 5.58 5.58 0 0 1 1.83 4.79 2.72 2.72 0 0 1-3 2.4q-1.82 0-2.49-3.35t-3.55-3.35q-2.59 0-5.18 3.74t-3.93 11.21l-1.67 9.48h7.72l-.67 3.35h-7.74l-6.74 38.82q-1.44 8-4.69 11.62a10.2 10.2 0 0 1-7.85 3.62 7.64 7.64 0 0 1-5.94-2.2 5.14 5.14 0 0 1-1.53-4.6 3 3 0 0 1 3.16-2.68q1.92 0 2.2 3.35c.19 2.23 1.22 3.35 3.07 3.35q2.11 0 3.55-2.85a39.13 39.13 0 0 0 2.68-9.6l6.68-38.85z"/><path class="cls-1" d="M250.83 215.95a10 10 0 0 0 4.29-1.29 18.93 18.93 0 0 0 4.48-3.11l.86 1.92a21.43 21.43 0 0 1-5.75 4.55 13.21 13.21 0 0 1-6.33 1.77 9.24 9.24 0 0 1-7.81-3.74 15.6 15.6 0 0 1-2.83-9.68v-1.72a48.52 48.52 0 0 1 .91-5.29q.91-4.53 5.85-9.59t10.11-5.06a7.27 7.27 0 0 1 5.22 1.86 6.47 6.47 0 0 1 2 4.92 27.44 27.44 0 0 1-.48 3q-.48 2.53-5.1 6.35t-13 5.54c0 3.06.61 5.41 1.83 7.07s3.15 2.49 5.78 2.49zm6-22.94a5 5 0 0 0 .1-1.14q0-3.33-3-3.33-3.43 0-6.31 3.71a23 23 0 0 0-4.06 10l-.29 1.52a21.75 21.75 0 0 0 9.45-4.48 11.8 11.8 0 0 0 4.16-6.27z"/><path class="cls-1" d="M281.55 184.7a4.59 4.59 0 0 1 3.74 1.39 5.31 5.31 0 0 1 1.15 3.5 9 9 0 0 1-.19 1.73 3.25 3.25 0 0 1-1.23 1.82 3.7 3.7 0 0 1-2.45.86 2.45 2.45 0 0 1-2-.91 2.6 2.6 0 0 1-.56-2.16v-1a.89.89 0 0 0-1-1.05q-2.3 0-5.17 5.26t-4.6 14.71l-1.63 9.27h-5.08l4.79-25.78v-2q0-2-1.25-2a4 4 0 0 0-2 .64 8.06 8.06 0 0 0-1.87 1.47v-2.3q3.07-3.16 6.23-3.16 3.93 0 3.93 4.6v2l-.67 2.4a19.21 19.21 0 0 1 4.41-6.88 7.82 7.82 0 0 1 5.45-2.41z"/><path class="cls-1" d="M294.72 215.95a10 10 0 0 0 4.29-1.29 19 19 0 0 0 4.48-3.11l.86 1.92a21.43 21.43 0 0 1-5.75 4.53 13.21 13.21 0 0 1-6.33 1.77 9.25 9.25 0 0 1-7.81-3.74 15.61 15.61 0 0 1-2.83-9.68v-1.72a48.38 48.38 0 0 1 .91-5.29q.91-4.53 5.85-9.59t10.11-5.06a7.27 7.27 0 0 1 5.22 1.86 6.47 6.47 0 0 1 2 4.92 27.44 27.44 0 0 1-.48 3q-.48 2.53-5.1 6.35t-13 5.54c0 3.06.61 5.41 1.83 7.07s3.15 2.49 5.78 2.49zm6-22.94a5 5 0 0 0 .1-1.14q0-3.33-3-3.33-3.43 0-6.31 3.71a23 23 0 0 0-4.06 10l-.29 1.52a21.75 21.75 0 0 0 9.45-4.48 11.84 11.84 0 0 0 4.16-6.28z"/><path class="cls-1" d="M306.46 218.15l4.79-25.78v-2q0-2-1.25-2a4 4 0 0 0-2 .64 8.06 8.06 0 0 0-1.87 1.47v-2.3q3.07-3.16 6.23-3.16 4.31 0 4.31 4.89v1.73l-.38.86a18.59 18.59 0 0 1 5.08-5.63 10.28 10.28 0 0 1 6-2.13 6.3 6.3 0 0 1 5.51 2.48 11.58 11.58 0 0 1 1.77 6.85 29 29 0 0 1-.5 4.85l-2.28 13.08v1.91c0 1.34.41 2 1.25 2a3.8 3.8 0 0 0 1.87-.67 13.5 13.5 0 0 0 2-1.44v2.2q-3.36 3.35-6.33 3.35a3.77 3.77 0 0 1-3.16-1.34 5.74 5.74 0 0 1-1.05-3.64v-1.73l2.4-13.32a29.26 29.26 0 0 0 .48-4.65 6.79 6.79 0 0 0-1-4.13 4 4 0 0 0-3.41-1.38q-2.65 0-5.88 4a22.66 22.66 0 0 0-4.36 10.73l-2.74 14.23z"/><path class="cls-1" d="M346.61 219.78a9 9 0 0 1-7.43-3.3q-2.64-3.3-2.64-8.84v-1.81q0-.76.91-5.73t5.8-10.18q4.89-5.21 9.58-5.21 4.31 0 6.13 2.06a5 5 0 0 1 1.44 4.26 5.36 5.36 0 0 1-1 2.25 2.6 2.6 0 0 1-2.17.91q-2 0-2.51-3.21t-2.41-3.21q-2.79 0-5.68 4a20.32 20.32 0 0 0-3.63 8.13q-.77 4.11-.87 5.25c-.06.76-.1 1.46-.1 2.1q0 8.7 7.13 8.69 4.14 0 8.48-4.31l1 1.9a20 20 0 0 1-5.7 4.55 13.34 13.34 0 0 1-6.27 1.7z"/><path class="cls-1" d="M371 215.95a10 10 0 0 0 4.29-1.29 19 19 0 0 0 4.48-3.11l.86 1.92a21.43 21.43 0 0 1-5.75 4.55 13.21 13.21 0 0 1-6.33 1.77 9.25 9.25 0 0 1-7.81-3.74 15.61 15.61 0 0 1-2.83-9.68v-1.72a48.38 48.38 0 0 1 .91-5.29q.91-4.53 5.85-9.59t10.11-5.06a7.27 7.27 0 0 1 5.22 1.86 6.47 6.47 0 0 1 2 4.92 27.44 27.44 0 0 1-.48 3q-.48 2.53-5.1 6.35t-13 5.54c0 3.06.61 5.41 1.83 7.07s3.15 2.49 5.78 2.49zm6-22.95a5 5 0 0 0 .1-1.14q0-3.33-3-3.33-3.43 0-6.31 3.71a23 23 0 0 0-4.06 10l-.29 1.52a21.75 21.75 0 0 0 9.45-4.48 11.9 11.9 0 0 0 4.11-6.28z"/><path class="cls-1" d="M387.18 25.57l-18.6 6.68c-1.74-5.23-6-12.49-17.6-12.79-5.4-.14-8.64 1.88-12.2 4.94s-6.41 8.52-6.1 13.08c.58 8.72 4.81 17.75 19 18.89 32.83 2.62 37.19 28.34 37.19 37.19 0 11.86-3.69 20.43-12.78 28.48-7.56 6.68-14.64 9.59-26.44 9.59-20.34 0-31.17-16.62-34.37-25.63l18.38-6.5c.58 3.49 7.57 13.82 17.45 12.95 6-.53 18.37-4 18.05-17.95-.29-12.79-9.34-19-19.22-19.24-16.56-.49-36.32-10.46-36.9-36.9-.21-9.67 3.64-21.1 11-27.6a39.78 39.78 0 0 1 27.41-10.47 38.35 38.35 0 0 1 35.74 25.28z"/></svg>