<svg xmlns="http://www.w3.org/2000/svg" viewBox="0 0 504.14 504.11"><defs><style>.cls-1{fill:#b4b4b4;}.cls-2{fill:#6e6d6e;}.cls-3{fill:#868686;}.cls-4{fill:#989898;}.cls-5{fill:#fff;}</style></defs><title>e4h-logo-bw-v2</title><path class="cls-1" d="M459.29 0h-.71v.49l.71-.49"/><path class="cls-2" d="M106.79 264.64a251.43 251.43 0 0 0 83.12 157.55c32.6-214.92 139.41-348.29 178.36-390.72a250.94 250.94 0 0 0-111.53-26.13h-7.93l-.65.33c38.35 147.44-57.59 222.33-141.26 258.76" transform="translate(-4.66 -5.34)"/><path class="cls-3" d="M237 377.26s56.77-192.65 269.63-152.12a252.19 252.19 0 0 0-138.3-193.78c-39 42.48-145.76 175.8-178.41 390.72z" transform="translate(-4.66 -5.34)"/><path class="cls-4" d="M104.78 233.51a252 252 0 0 1 143.38-227.68v-.49c-139.16 4.74-248.1 121.38-243.35 260.52a252.08 252.08 0 0 0 2.68 29c16.73-3 61.34-8.15 104.25-26.84-1.25-10.27-7-24.18-7-34.77" transform="translate(-4.66 -5.34)"/><path class="cls-3" d="M248.16 5.83a251.48 251.48 0 0 0-141.26 258.76c83.61-36.51 179.61-111.32 141.26-258.76" transform="translate(-4.66 -5.34)"/><path class="cls-1" d="M107.45 269.48c-43 18.36-83.23 22.38-100 25.43a252.35 252.35 0 0 0 174.48 203.23c1.36-23 3.69-45.09 6.68-66.5.43-3.21.87-6.41 1.36-9.51a254.36 254.36 0 0 1-82.52-152.66" transform="translate(-4.66 -5.34)"/><path class="cls-4" d="M356.87 485.38a250.78 250.78 0 0 1-147.67-47.87q-10-7.23-19.23-15.37l-1.36 9.51c-3 21.41-5.43 43.46-6.68 66.5a252.79 252.79 0 0 0 182.87-13h-7.93" transform="translate(-4.66 -5.34)"/><path class="cls-1" d="M506.65 224.88c-212.86-40.53-269.65 152.12-269.65 152.12l-47 45.09c6.14 5.43 12.6 10.54 19.23 15.37a250.78 250.78 0 0 0 147.66 47.86h7.93c1.47-.71 2.83-1.47 4.24-2.23a250.94 250.94 0 0 0 137.53-258.09" transform="translate(-4.66 -5.34)"/><path class="cls-5" d="M339 410.51c-5.43 0-6.63-1.68-6.63-7.06 0-22.38 43.46-99.47 77.53-136.8-12.44-15.76-30.7-26.13-45.2-26.13-22.11 0-45.85 13.09-89.21 64.7a236.87 236.87 0 0 0-38.9 74.48c3-28.14 19.61-71.66 19.61-71.66a563.81 563.81 0 0 1 34.28-78.83c19.5-38 53.89-83.34 95.35-125.61-9.51-10.38-34.82-19.88-52.21-19.88a585.76 585.76 0 0 0-90.94 148.1c-15.32 22.06-37.05 47.32-63.07 51.88-17.17 3-24.39-17.11-27.16-32.6-.71-4.07-1-8.2-1.58-11.84 71.48-43.78 105.65-80.26 97.23-155.04-14.89-13.26-29.5-19.56-43.46-19-56.01 9.78-105.89 98.26-100.64 170.36 12.93-5.05 32.6-20.32 49.38-28.41 6.41-55.14 35.2-92.74 66.12-102.63 4.51 38-19.94 77.91-57.91 109.14l-5.43 3.53-4.16 2.56c-17.22 10.32-34.93 19.94-46.61 26.13l-13.54 7.1a46.94 46.94 0 0 0 1.58 7.33c1.63 5.43 4.73 11.35 10.27 10.49a7.12 7.12 0 0 0 4.18-1.3c13.26 28.74 47.21 50.69 76.06 36.83a128.59 128.59 0 0 0 42.86-32.16c-19.94 56.83-36.51 114.09-36.51 148 3.37 3.69 24.12 18.8 24.12 18.8 4.51-10.59 10.32-23 15.92-34 29.67-55.99 63.35-92.69 92.67-114.59a66.5 66.5 0 0 1 16.3-9.94 3.26 3.26 0 0 1 1.68 1.68c-27.16 54.33-46.83 106.54-46.83 122.67 0 12.82 11.19 26.13 22.38 26.13 8.69 0 40.2-14.94 40.2-19.07a13.74 13.74 0 0 0-3.21-6.52 41.72 41.72 0 0 1-14.52 3.33" transform="translate(-4.66 -5.34)"/></svg>