<svg xmlns="http://www.w3.org/2000/svg" viewBox="0 0 440.48 503.3"><defs><style>.cls-1{fill:#fff;}.cls-2{fill:#cfcfcf;}.cls-3{fill:#262626;}.cls-4{fill:#898989;}</style></defs><title>nbsp-non-breaking-space-show-logo-bw2</title><path class="cls-1" d="M468.89 389.52l-203 117.21a17.23 17.23 0 0 1-17.23 0l-203-117.21a17.23 17.23 0 0 1-8.66-14.92v-234.42a17.23 17.23 0 0 1 8.62-14.92l203-117.21a17.23 17.23 0 0 1 17.23 0l203 117.21a17.23 17.23 0 0 1 8.62 14.92v234.42a17.23 17.23 0 0 1-8.58 14.92z" transform="translate(-37.02 -5.74)"/><polyline class="cls-1" points="150.28 64.35 150.28 213.71 419.68 370 419.68 139.71 220.24 24.56 150.28 64.35 150.28 213.71 150.28 213.71"/><polyline class="cls-2" points="289.98 61.94 289.98 211.31 20.57 367.6 20.57 137.3 220.01 22.16 289.98 61.94 289.98 211.31 289.98 211.31"/><polygon class="cls-1" points="221.22 102.44 221.22 253.63 220.24 254.2 220.24 21.88 374.17 97.08 394.52 267.91 352.28 267.91 352.28 178.1 221.22 102.44"/><polygon class="cls-3" points="279.75 286.6 150.79 361.05 90.77 326.4 20.8 365.89 20.8 368 220.24 483.14 419.68 368 279.75 286.6"/><polygon class="cls-3" points="220.24 102.15 220.24 251.51 349.71 326.4 349.71 176.9 220.24 102.15"/><polygon class="cls-4" points="221.21 252.07 220.24 251.51 220.24 102.15 90.77 176.9 90.77 265.62 90.77 326.4 220.24 401.15 349.71 326.4 221.21 252.07"/></svg>